<svg id="Mail_icon" xmlns="http://www.w3.org/2000/svg" width="35.652" height="35.652" viewBox="0 0 35.652 35.652">
  <path id="Mail_icon-2" data-name="Mail_icon" d="M81.826,99.652A17.826,17.826,0,1,0,64,81.826,17.825,17.825,0,0,0,81.826,99.652Zm-1.038-17-7.012-4.213a1.777,1.777,0,0,1,.912-3.3H88.956a1.777,1.777,0,0,1,.912,3.3l-7.005,4.213a2.028,2.028,0,0,1-2.075,0Zm9.95-2.131v5.759a2.226,2.226,0,0,1-2.228,2.228H75.141a2.226,2.226,0,0,1-2.228-2.228V80.524l6.733,4.039a4.224,4.224,0,0,0,4.359,0Z" transform="translate(-64 -64)" fill="#814c28"/>
</svg>
