<svg id="Menu_icon" xmlns="http://www.w3.org/2000/svg" width="50" height="42.857" viewBox="0 0 50 42.857">
  <path id="bars-light-full" d="M96,129.786A1.791,1.791,0,0,1,97.786,128h46.429a1.786,1.786,0,0,1,0,3.571H97.786A1.791,1.791,0,0,1,96,129.786Zm0,19.643a1.791,1.791,0,0,1,1.786-1.786h46.429a1.786,1.786,0,1,1,0,3.571H97.786A1.791,1.791,0,0,1,96,149.429Zm50,19.643a1.791,1.791,0,0,1-1.786,1.786H97.786a1.786,1.786,0,1,1,0-3.571h46.429A1.791,1.791,0,0,1,146,169.071Z" transform="translate(-96 -128)" fill="#814c28"/>
</svg>
