<svg id="Sluzba_6_icon" xmlns="http://www.w3.org/2000/svg" width="96.961" height="77.643" viewBox="0 0 96.961 77.643">
  <path id="Sluzba_6_icon-2" data-name="Sluzba_6_icon" d="M65.467,64a2.408,2.408,0,0,1,1.9.91L86.774,89.173a2.422,2.422,0,0,1,.288,2.563,2.452,2.452,0,0,1-2.184,1.38H78.737L91.6,108.554a2.422,2.422,0,0,1-1.865,3.973H83.65l12.708,15.438.2.288a2.427,2.427,0,0,1-2.078,3.685H67.894v7.279a2.426,2.426,0,1,1-4.853,0v-7.279H33.925v7.279a2.426,2.426,0,1,1-4.853,0v-7.279H2.382a2.445,2.445,0,0,1-2.2-1.4A2.42,2.42,0,0,1,.5,127.965l12.769-15.438H7.235a2.422,2.422,0,0,1-1.865-3.973l12.86-15.438H12.088a2.431,2.431,0,0,1-1.9-3.943L29.6,64.91,30,64.531A2.448,2.448,0,0,1,31.5,64a2.408,2.408,0,0,1,1.9.91L52.8,89.173a2.422,2.422,0,0,1,.288,2.563,2.452,2.452,0,0,1-2.184,1.38H44.768l12.86,15.438a2.422,2.422,0,0,1-1.865,3.973H49.681l11.98,14.558H89.352L76.644,111.647a2.42,2.42,0,0,1-.318-2.578,2.445,2.445,0,0,1,2.2-1.4H84.56L71.7,92.237a2.422,2.422,0,0,1,1.865-3.973h6.263L65.467,70.309l-9.22,11.51-3.109-3.882L63.572,64.91l.394-.379A2.328,2.328,0,0,1,65.467,64ZM17.138,88.264H23.4a2.422,2.422,0,0,1,1.865,3.973l-12.86,15.438h6.005a2.445,2.445,0,0,1,2.2,1.4,2.42,2.42,0,0,1-.318,2.578L7.538,127.085H55.383L42.675,111.647a2.432,2.432,0,0,1,1.88-3.973h6.036L37.731,92.237A2.422,2.422,0,0,1,39.6,88.264h6.263L31.5,70.309Z" transform="translate(0.052 -64)" fill="currentColor"/>
</svg>
