<svg id="Sluzba_3_icon" xmlns="http://www.w3.org/2000/svg" width="86.136" height="76.548" viewBox="0 0 86.136 76.548">
  <path id="Sluzba_3_icon-2" data-name="Sluzba_3_icon" d="M97.871,123.136a25.73,25.73,0,0,0,5.083-1.7,26.009,26.009,0,0,0,15.28-23.892l-.075-11.3a7.176,7.176,0,0,0-13.74-2.856L97.752,68.653a7.193,7.193,0,0,0-9.509-3.588,7.307,7.307,0,0,0-2.2,1.555,7.18,7.18,0,0,0-12.619,5.711,7.445,7.445,0,0,0-2.617.628,7.18,7.18,0,0,0-4.171,7.281l6.04,2.616L71.6,80.48a2.4,2.4,0,0,1,4.366-1.974L79.227,85.7l1.525.658.06.03h0a31.009,31.009,0,0,1,5.368,3.065Q79.361,74.4,78.36,72.182a2.4,2.4,0,0,1,4.366-1.974q.987,2.175,7.894,17.433a2.4,2.4,0,0,0,4.366-1.974L89.035,72.6A2.4,2.4,0,0,1,93.4,70.627l10.69,23.593a2.4,2.4,0,0,0,4.575-1l-.045-6.908a2.392,2.392,0,1,1,4.784-.03l.075,11.318A21.226,21.226,0,0,1,101,117.1a18.63,18.63,0,0,1-2.078.807,30.462,30.462,0,0,1-1.032,5.248ZM66.563,90.542l10.331,4.59a21.241,21.241,0,0,1-8.627,40.653H48.846a2.392,2.392,0,1,1,0-4.784h9.569a2.392,2.392,0,1,0,0-4.784H44.061a2.392,2.392,0,0,1,0-4.784H58.415a2.392,2.392,0,1,0,0-4.784H39.277a2.392,2.392,0,0,1,0-4.784H58.415a2.392,2.392,0,1,0,0-4.784H44.061a2.392,2.392,0,0,1,0-4.784h25.9a2.4,2.4,0,0,0,2.347-1.9,2.361,2.361,0,0,0-1.376-2.676l-6.309-2.811a2.389,2.389,0,1,1,1.944-4.366Zm-24.386,40.2a7.067,7.067,0,0,0-.508,2.646,7.179,7.179,0,0,0,7.177,7.177H68.267A26.031,26.031,0,0,0,78.838,90.751l-10.331-4.59a7.18,7.18,0,0,0-8.268,11.348H44.061a7.171,7.171,0,0,0-6.668,9.823,7.173,7.173,0,0,0,0,13.845,7.068,7.068,0,0,0-.508,2.646A7.176,7.176,0,0,0,42.177,130.746Z" transform="translate(-32.1 -64.021)" fill="currentColor"/>
</svg>
