<?xml version='1.0' encoding='utf-8'?>
<!-- Generator: imaengine 6.0   -->
<svg id="logo" xmlns:xlink="http://www.w3.org/1999/xlink" xmlns="http://www.w3.org/2000/svg" viewBox="0,0,494,141" style="enable-background:new 0 0 494 141;" version="1.1">
<defs/>
<g id="layer0">
<g transform="matrix(1 0 0 1 0 0)">
<path d="M114.7,2C111.813,2 108.909,3.099 106.707,5.28911C103.239,8.73789 102.539,13.8529 104.533,18.0192L71.3044,51.0626L48.1519,74.0864C46.6842,75.5458 44.2908,75.5458 42.8231,74.0864C41.3555,72.6269 41.3555,70.2772 42.8231,68.8177L60.6775,51.0626L74.765,37.0534C76.2326,35.5939 76.2326,33.2442 74.765,31.7847C73.2974,30.3252 70.9039,30.3252 69.4363,31.7847L50.0506,51.0626L10.6363,51.0626C5.87563,51.0626 2,54.8862 2,59.6204L2,121.565C2.00002,126.299 5.84497,130.123 10.6056,130.123L111.883,130.123C116.643,130.123 120.488,126.299 120.488,121.565L120.519,65.5895L93.875,92.0851C92.4074,93.5446 90.0139,93.5445 88.5463,92.0851C87.0786,90.6256 87.0786,88.2455 88.5463,86.786L119.386,56.1181C119.46,56.0438 119.551,56.002 119.631,55.9353C119.626,55.9266 119.604,55.9136 119.6,55.9049L133.657,41.9262C134.99,42.5574 136.44,42.8154 137.883,42.9007L143.396,62.8181C143.425,62.9255 143.48,63.0202 143.518,63.1227L156.166,108.927C156.921,111.63 158.878,112.581 161.219,112.581C163.636,112.581 165.456,111.691 166.211,108.987L175.215,75.0305C176.423,70.3742 177.308,63.9946 178.063,59.864C178.743,63.9946 179.58,70.5265 180.789,75.1827L189.394,108.927C190.074,111.705 192.121,112.581 194.386,112.581C196.803,112.581 198.684,111.616 199.439,108.987L214.231,57.0013C214.307,56.7008 214.384,56.4185 214.384,56.1181C214.384,54.4658 212.967,53.5557 211.23,53.2553C210.928,53.1802 210.552,53.1944 210.25,53.1944C208.664,53.1944 207.379,53.7979 206.851,55.6003L197.326,91.2628C196.344,94.9428 195.203,101.765 194.448,105.82C193.768,101.915 192.796,94.9265 191.814,91.1715L182.81,56.5749C182.206,54.1716 180.48,53.1944 178.063,53.1944C175.495,53.1944 173.767,54.1554 173.163,56.4835L164.19,91.1106C163.133,95.0909 162.052,101.854 161.373,105.759C160.693,101.929 159.704,95.03 158.647,91.0496L150.684,61.1126C150.666,61.0193 150.679,60.9318 150.654,60.8385L149.919,58.189L149.214,55.6003C149.199,55.5381 149.171,55.5075 149.153,55.4481L145.111,40.7384C145.567,40.4057 146.076,40.1743 146.489,39.7639C150.893,35.3837 150.894,28.2773 146.489,23.897C142.084,19.5167 134.938,19.5167 130.533,23.897C127.065,27.3457 126.366,32.4607 128.359,36.627L113.659,51.2453C113.644,51.2422 113.643,51.2484 113.628,51.2453C113.555,51.333 113.496,51.4067 113.414,51.4889L97.4581,67.3559C95.9899,68.8159 93.5976,68.8159 92.1294,67.3559C90.6612,65.8958 90.6611,63.5473 92.1294,62.0872L103.216,51.0626L108.085,46.2203L114.945,39.3984C116.413,37.9389 116.413,35.5892 114.945,34.1297C113.477,32.6703 111.084,32.6703 109.616,34.1297L92.5888,51.0626L50.9388,92.4506C52.9319,96.6169 52.2324,101.762 48.7644,105.211C44.3597,109.591 37.2441,109.591 32.8394,105.211C28.4346,100.831 28.4347,93.7244 32.8394,89.3442C36.3083,85.8946 41.4505,85.1981 45.6406,87.1819L81.9619,51.0626L109.861,23.3183C114.051,25.3021 119.194,24.6055 122.663,21.156C127.067,16.7758 127.067,9.66943 122.663,5.28911C120.46,3.09899 117.587,2 114.7,2ZM114.7,9.49186C115.662,9.49186 116.6,9.82774 117.334,10.5578C118.802,12.0178 118.802,14.3968 117.334,15.8569C115.866,17.317 113.504,17.3169 112.036,15.8569C110.567,14.3968 110.567,12.0179 112.036,10.5578C112.77,9.82774 113.738,9.49186 114.7,9.49186ZM83.9831,18.8415C83.0209,18.8415 82.0832,19.208 81.3494,19.9378L78.1338,23.1051C76.666,24.5647 76.666,26.9446 78.1338,28.4043C79.6015,29.8638 81.9947,29.8638 83.4625,28.4043L86.6475,25.237C88.1153,23.7774 88.1153,21.3974 86.6475,19.9378C85.9136,19.208 84.9454,18.8415 83.9831,18.8415ZM138.496,28.0997C139.458,28.0997 140.426,28.4356 141.16,29.1656C142.628,30.6257 142.628,33.0047 141.16,34.4647C139.692,35.9248 137.33,35.9248 135.862,34.4647C134.394,33.0047 134.394,30.6258 135.862,29.1656C136.596,28.4356 137.533,28.0997 138.496,28.0997ZM460.824,53.1944C458.709,53.1944 457.271,54.1654 457.271,56.1181L457.271,109.597C457.271,111.624 458.709,112.581 460.824,112.581C462.787,112.581 464.07,111.624 464.07,109.597L464.07,88.5524C464.07,85.6234 464.908,83.4617 466.796,80.9082C469.288,77.6038 472.611,75.6396 476.841,75.6396C482.505,75.6396 485.14,79.1842 485.14,85.5678L485.14,109.597C485.14,111.624 486.5,112.581 488.539,112.581C490.503,112.581 492,111.624 492,109.597L492,84.1364C492,74.899 487.175,69.4877 478.188,69.4877C470.258,69.4877 466.103,73.4747 463.611,78.8068C463.762,77.6803 464.07,75.9459 464.07,74.9695L464.07,56.1181C464.07,54.0903 462.787,53.1944 460.824,53.1944ZM231.32,53.6512C225.958,53.6512 223.603,55.9694 223.603,61.7522L223.603,104.115C223.603,109.822 225.958,112.155 231.32,112.155L260.536,112.155C262.5,112.155 263.568,110.638 263.568,108.835C263.568,106.958 262.5,105.607 260.536,105.607L233.494,105.607C231.833,105.607 230.707,104.928 230.708,103.201L230.708,84.7151L256.463,84.7151C258.276,84.7151 259.403,83.3055 259.403,81.5782C259.403,79.7007 258.351,78.35 256.463,78.35L230.708,78.35L230.708,62.7877C230.708,60.9852 231.468,60.1686 233.28,60.1685L259.863,60.1685C261.826,60.1685 262.864,58.757 262.864,56.8794C262.864,55.0019 261.826,53.6512 259.863,53.6512L231.32,53.6512ZM280.106,53.6512C274.744,53.6512 272.48,55.9694 272.48,61.7522L272.48,104.115C272.48,109.822 274.744,112.155 280.106,112.155L298.756,112.155C310.386,112.155 317.101,106.136 317.101,95.9224C317.101,87.8115 313.166,82.8508 305.463,81.2737C311.958,79.1708 315.049,74.9778 315.049,67.8431C315.049,58.831 308.804,53.6512 297.929,53.6512L280.106,53.6512ZM281.698,59.864L297.378,59.864C304.251,59.864 307.821,62.8684 307.821,68.7263C307.821,74.7344 304.026,78.35 297.531,78.35L279.493,78.35L279.493,62.2699C279.493,60.7679 280.263,59.864 281.698,59.864ZM431.209,69.3963C421.467,69.3963 415.591,74.074 415.591,80.9082C415.591,88.0428 419.44,91.2572 428.729,93.0597L433.016,93.8819C439.889,95.2338 441.867,97.2675 441.867,100.947C441.867,104.778 437.925,107.404 431.883,107.404C425.917,107.404 422.83,105.242 421.471,100.887C421.018,99.4596 419.659,98.8461 418.224,98.8461C417.922,98.8461 417.561,98.9232 417.183,98.9983C415.748,99.2987 414.457,100.359 414.458,101.861C414.458,102.161 414.505,102.46 414.58,102.836C416.544,109.52 422.216,113.343 431.883,113.343C442.456,113.343 448.666,108.005 448.666,100.795C448.666,92.9095 444.733,90.0624 434.915,88.0346L430.229,87.0601C423.886,85.7083 422.451,84.2106 422.451,80.7559C422.451,77.6017 425.307,75.1218 431.424,75.1218C435.728,75.1218 439.078,76.8282 440.06,80.2078C440.438,81.6347 441.794,82.2482 443.153,82.2482C443.531,82.2482 443.97,82.1711 444.348,82.096C445.707,81.7204 446.981,80.7515 446.981,79.3246C446.981,79.0242 446.904,78.7113 446.828,78.4109C444.94,72.9285 439.592,69.3963 431.209,69.3963ZM343.775,69.4877C331.541,69.4877 324.206,78.2703 324.206,91.2628C324.206,104.631 331.467,113.343 343.928,113.343C355.709,113.343 362.946,104.33 362.946,91.2628C362.946,78.1952 355.858,69.4877 343.775,69.4877ZM374.951,70.0968C372.912,70.0968 371.491,71.0536 371.491,73.0814L371.491,98.5415C371.491,107.704 376.391,113.282 385.303,113.282C392.855,113.282 397.233,109.433 399.574,104.176C399.347,105.377 399.114,106.882 399.114,107.708L399.114,109.81C399.114,111.687 400.567,112.581 402.606,112.581C404.569,112.581 405.913,111.624 405.913,109.597L405.913,73.0814C405.913,71.0536 404.477,70.0968 402.514,70.0968C400.475,70.0968 399.053,71.0536 399.053,73.0814L399.053,93.9733C399.053,96.9023 398.293,99.2163 396.481,101.77C393.913,105.299 390.653,107.191 386.65,107.191C381.061,107.191 378.442,103.569 378.443,97.1101L378.443,73.0814C378.443,71.0536 376.99,70.0968 374.951,70.0968ZM343.989,75.2741C351.693,75.2741 355.994,81.7087 355.994,91.1715C355.994,101.16 351.701,107.556 343.469,107.556C335.69,107.556 331.157,101.044 331.158,91.5065C331.158,81.518 335.833,75.2741 343.989,75.2741ZM279.493,84.5019L297.776,84.5019C305.479,84.5019 309.628,88.1929 309.628,95.2524C309.628,102.162 305.557,105.912 297.929,105.912L281.913,105.912C280.251,105.912 279.493,105.097 279.493,103.445L279.493,84.5019ZM40.8019,93.5165C39.8397,93.5165 38.8716,93.8828 38.1375,94.6129C36.6693,96.0729 36.6693,98.4519 38.1375,99.912C39.6057,101.372 41.998,101.372 43.4663,99.912C44.9344,98.4519 44.9345,96.0729 43.4663,94.6129C42.7322,93.8828 41.7641,93.5165 40.8019,93.5165ZM82.8806,94.0038C83.8413,94.0054 84.7805,94.3704 85.5144,95.1001C86.982,96.5596 86.982,98.9093 85.5144,100.369L80.2163,105.668C78.7486,107.127 76.3552,107.127 74.8875,105.668C73.4199,104.208 73.4199,101.828 74.8875,100.369L80.2163,95.0697C80.9501,94.3399 81.92,94.0021 82.8806,94.0038Z" fill-rule="evenodd" fill="currentColor"/>
<path d="M5.66729,131.646L116.926,131.646C118.932,131.646 120.558,133.271 120.558,135.277C120.558,137.282 118.932,138.908 116.926,138.908L5.66729,138.908C3.66179,138.908 2.03602,137.282 2.03602,135.277C2.03602,133.271 3.66179,131.646 5.66729,131.646Z" fill-rule="evenodd" fill="currentColor"/>
</g>
</g>
</svg>
