<svg id="Close_icon" xmlns="http://www.w3.org/2000/svg" width="50" height="50" viewBox="0 0 50 50">
  <path id="Close_icon-2" data-name="Close_icon" d="M89,114A25,25,0,1,0,64,89,25,25,0,0,0,89,114ZM80.309,80.309a2.334,2.334,0,0,1,3.311,0L88.99,85.68l5.371-5.371a2.341,2.341,0,0,1,3.311,3.311L92.3,88.99l5.371,5.371a2.341,2.341,0,0,1-3.311,3.311L88.99,92.3l-5.371,5.371a2.341,2.341,0,0,1-3.311-3.311L85.68,88.99l-5.371-5.371A2.334,2.334,0,0,1,80.309,80.309Z" transform="translate(-64 -64)" fill="#814c28"/>
</svg>
