<svg id="Ig_icon" xmlns="http://www.w3.org/2000/svg" width="35.875" height="35.875" viewBox="0 0 35.875 35.875">
  <g id="Group_819" data-name="Group 819" transform="translate(-0.001 -0.102)">
    <path id="Path_1470" data-name="Path 1470" d="M17.938,0A17.937,17.937,0,1,0,35.876,17.938,17.937,17.937,0,0,0,17.938,0m11.2,22.583a6.723,6.723,0,0,1-1.821,4.725v.007a6.729,6.729,0,0,1-4.727,1.827c-1.862.105-7.449.105-9.311,0a6.729,6.729,0,0,1-4.727-1.827,6.692,6.692,0,0,1-1.821-4.727c-.105-1.862-.105-7.449,0-9.311A6.723,6.723,0,0,1,8.555,8.55,6.7,6.7,0,0,1,13.282,6.73c1.862-.105,7.449-.105,9.311,0A6.723,6.723,0,0,1,27.319,8.55a6.692,6.692,0,0,1,1.821,4.727c.105,1.855.105,7.434,0,9.3" transform="translate(0 0.102)" fill="#814c28"/>
    <path id="Path_1471" data-name="Path 1471" d="M202.656,201.569a3.763,3.763,0,1,0,5.22,1.037,3.763,3.763,0,0,0-5.22-1.037" transform="translate(-186.807 -186.658)" fill="#814c28"/>
    <path id="Path_1472" data-name="Path 1472" d="M141.063,125.506a3.863,3.863,0,0,0-.847-1.3v.014a3.793,3.793,0,0,0-1.3-.847c-1.277-.5-4.063-.479-5.862-.455-.289,0-.558.007-.79.007s-.508,0-.8-.007c-1.8-.021-4.571-.049-5.848.455a3.861,3.861,0,0,0-1.3.847,3.693,3.693,0,0,0-.847,1.3c-.5,1.277-.473,4.07-.455,5.869,0,.289.007.558.007.783s0,.494-.007.783c-.014,1.8-.042,4.592.455,5.869a3.862,3.862,0,0,0,.847,1.3,3.693,3.693,0,0,0,1.3.847c1.277.5,4.063.479,5.862.455.289,0,.558-.007.79-.007s.508,0,.8.007c1.8.021,4.571.049,5.848-.455a3.862,3.862,0,0,0,1.3-.847,3.694,3.694,0,0,0,.847-1.3c.508-1.27.479-4.049.455-5.854,0-.3-.007-.571-.007-.8s0-.5.007-.8c.021-1.8.049-4.578-.455-5.854m-3.985,9.882a5.788,5.788,0,1,1-1.6-8.028h.007a5.787,5.787,0,0,1,1.593,8.028m2.461-8.733a1.391,1.391,0,0,1-.289.438,1.334,1.334,0,0,1-.438.3,1.294,1.294,0,0,1-.515.105,1.333,1.333,0,0,1-.748-.228h-.007a1.4,1.4,0,0,1-.5-.607,1.357,1.357,0,0,1,.289-1.475,1.3,1.3,0,0,1,.691-.367,1.353,1.353,0,0,1,.783.076,1.389,1.389,0,0,1,.607.494,1.332,1.332,0,0,1,.228.748,1.422,1.422,0,0,1-.1.515" transform="translate(-114.328 -114.136)" fill="#814c28"/>
  </g>
</svg>
