<svg id="Logo_name" xmlns="http://www.w3.org/2000/svg" xmlns:xlink="http://www.w3.org/1999/xlink" width="260" height="346.136" viewBox="0 0 260 346.136">
  <defs>
    <clipPath id="clip-path">
      <rect id="Rectangle_321" data-name="Rectangle 321" width="210.001" height="280.511" fill="#814c28"/>
    </clipPath>
    <style>
      @font-face {
        font-family: "Titillium";
        src: url("../fonts/TitilliumWeb-Light.woff2") format("woff2");
      }
    </style>
  </defs>
  <text id="Ladislav_Záhorský" data-name="Ladislav Záhorský" transform="translate(0 318.136)" fill="#814c28" font-size="20" font-family="Titillium"><tspan x="54" y="15">Ladislav Záhorský</tspan></text>
  <g id="Padreza_logo_paticka" transform="translate(25)">
    <g id="Group_818" data-name="Group 818" clip-path="url(#clip-path)">
      <path id="Path_1480" data-name="Path 1480" d="M13.377,2077.45c7.535,0,11.907,2.121,11.907,11.539,0,10.908-5.952,13.02-12.482,13.02H10.85c-1.21,0-1.42.053-1.42.422v10.48a.5.5,0,0,1-.528.53H.525a.5.5,0,0,1-.525-.53v-34.927a.5.5,0,0,1,.525-.534Zm-2,17.52c2.9,0,4.267-1.055,4.267-5.714,0-4.072-1.317-5.133-3.9-5.133H9.955c-.422,0-.525.216-.525.425V2094.6c0,.212.1.372.525.372Z" transform="translate(0 -1832.93)" fill="#814c28"/>
      <path id="Path_1481" data-name="Path 1481" d="M235.669,2105.5c-.105-.321-.21-.321-.42-.321h-8.167a.474.474,0,0,0-.527.372l-1.63,7.356c-.16.419-.37.531-.688.531H215.6c-.263,0-.475-.161-.37-.531,1.527-6.559,6.847-27.15,9.007-34.926a.679.679,0,0,1,.633-.535h13.538c.372,0,.527.219.635.535,2.1,7.886,7.742,30.163,8.8,34.926.052.314,0,.531-.37.531h-9.482a.6.6,0,0,1-.682-.531Zm-1.16-7.411c.1,0,.213-.054.213-.264-.37-2.172-1.793-9.578-2.478-12.6-.052-.154-.157-.213-.84-.213-.635,0-.792.059-.845.213-.793,3.019-2.373,10.425-2.74,12.6,0,.209.053.264.212.264Z" transform="translate(-189.988 -1832.929)" fill="#814c28"/>
      <path id="Path_1482" data-name="Path 1482" d="M540.45,2077.45c11.43,0,14.063,8.421,14.063,18s-2.632,17.992-14.062,17.992h-13.7a.5.5,0,0,1-.525-.53v-34.927a.5.5,0,0,1,.525-.534Zm-1.215,7.413h-3.263a.28.28,0,0,0-.317.32v20.426c0,.266.052.317.263.317h3.372c4.635,0,5.32-2.806,5.32-10.744,0-7.673-.685-10.319-5.375-10.319" transform="translate(-464.573 -1832.93)" fill="#814c28"/>
      <path id="Path_1483" data-name="Path 1483" d="M830.13,2011.668c-.737-1.8-.9-1.906-1.526-1.906h-1.737c-.422,0-.635,0-.635.371v11.959a.5.5,0,0,1-.53.53h-8.425a.5.5,0,0,1-.528-.53v-34.926a.505.505,0,0,1,.528-.535h12.01c8.64,0,12.96,2.441,12.96,9.847,0,4.131-1.213,7.093-3.792,9.421-.633.53-.74.69-.74.949a7.774,7.774,0,0,0,.74,1.755l6.427,13.489a.359.359,0,0,1-.373.53h-9.428c-.368,0-.525-.053-.685-.474Zm-7.532-37.152c1.159,0,1.58,0,2.212.741l3.37,3.549a.917.917,0,0,0,.528.156,1.021,1.021,0,0,0,.633-.156l3.477-3.549c.685-.69,1.053-.741,2.212-.741h4.163c.315,0,.63.216.527.53l-5.953,8.524a.989.989,0,0,1-.792.525H824.6a.985.985,0,0,1-.788-.525l-5.955-8.524c-.105-.314.212-.53.527-.53Zm10.062,23.761c0-3.6-.9-4.92-4.268-4.92h-1c-1,0-1.16.108-1.16.422v9.265c0,.58.473.633,2.16.633,3.16,0,4.268-1.322,4.268-5.4" transform="translate(-721.056 -1742.112)" fill="#814c28"/>
      <path id="Path_1484" data-name="Path 1484" d="M1092.466,2077.983a.5.5,0,0,1,.525-.535h19.547a.506.506,0,0,1,.525.535v6.613a.5.5,0,0,1-.525.532H1102.37a.278.278,0,0,0-.317.314v5.615a.279.279,0,0,0,.317.314h9.218a.5.5,0,0,1,.528.533v6.293a.5.5,0,0,1-.528.529h-9.218a.282.282,0,0,0-.317.322v6.184a.281.281,0,0,0,.317.321h10.85a.5.5,0,0,1,.527.53v6.826a.5.5,0,0,1-.527.531h-20.229a.5.5,0,0,1-.525-.531Z" transform="translate(-964.468 -1832.929)" fill="#814c28"/>
      <path id="Path_1485" data-name="Path 1485" d="M1302.118,2113.44a.5.5,0,0,1-.529-.53v-6.034a4.705,4.705,0,0,1,.58-1.741l10.745-18.529a1.5,1.5,0,0,0,.268-.95c0-.369-.108-.527-.426-.527h-9.585a.5.5,0,0,1-.528-.532v-6.613a.505.505,0,0,1,.528-.534h20.965a.505.505,0,0,1,.53.534v6.563a3.307,3.307,0,0,1-.475,1.378l-10.59,17.987a1.754,1.754,0,0,0-.265,1.062c0,.531.052.581.315.581h10.435a.514.514,0,0,1,.58.53v6.826a.5.5,0,0,1-.53.53Z" transform="translate(-1149.089 -1832.93)" fill="#814c28"/>
      <path id="Path_1486" data-name="Path 1486" d="M1534.121,2105.5c-.1-.321-.21-.321-.42-.321h-8.165a.478.478,0,0,0-.53.372l-1.63,7.356c-.157.419-.373.531-.683.531h-8.642c-.262,0-.475-.161-.37-.531,1.53-6.559,6.85-27.15,9.012-34.926a.667.667,0,0,1,.628-.535h13.54c.367,0,.53.219.632.535,2.105,7.886,7.742,30.163,8.8,34.926.053.314,0,.531-.367.531h-9.484a.6.6,0,0,1-.682-.531Zm-1.155-7.411c.1,0,.21-.054.21-.264-.373-2.172-1.793-9.578-2.478-12.6-.053-.154-.16-.213-.843-.213-.633,0-.79.059-.844.213-.788,3.019-2.367,10.425-2.738,12.6,0,.209.052.264.212.264Z" transform="translate(-1336.308 -1832.929)" fill="#814c28"/>
      <path id="Path_1487" data-name="Path 1487" d="M358.792,210.246s-40.924-1.367-50.478-54.825c-6.182-34.616,24.234-48.091,1.6-86.477,0,0,29.314,7.453,26.345,35.457-2.117,19.962,2.728,27.583,14.552,30.782,11.158,3.022,31.445-11.457.284-34.189,0,0,5.191-5.218,19.664-1.864,0,0-23.32-25.268-24.115-54.411C345.907,17.512,374.843,0,374.843,0s-11.871,31.3,2.967,49.195,42.466,39.4,40.421,82.683c0,0,9.78-33.579-6.291-58.088,0,0,36.724,19.752,31.153,61.865-.1.763-.208,1.515-.31,2.26-4.451,30.586-3.523-13.459-11.845-20.134a3.215,3.215,0,0,1-1.138-3.435c-2.389,27.84-16.683,31.867-16.683,31.867.568-19.586.3-68.43-42.727-83.231,0,0,23.371,26.459,15.953,58.883,0,0-5.938-9.691-15.953-13.047,0,0,17.573,36.394-13.637,42.39-25.082,4.822-26.674-28.47-28.588-43.1,0,0-47.815,60.1,30.628,102.134" transform="translate(-271.442 0)" fill="#814c28"/>
      <path id="Path_1488" data-name="Path 1488" d="M746.311,1123.289a16.414,16.414,0,1,0,31.34-9.772C775.011,1105,765.81,1100,757.5,1102.563a16.422,16.422,0,0,0-11.187,20.725m30.447-9.513a15.669,15.669,0,0,1-10.179,19.482,15.551,15.551,0,1,1,10.179-19.482" transform="translate(-658.202 -972.198)" fill="#814c28" fill-rule="evenodd"/>
      <path id="Path_1489" data-name="Path 1489" d="M770.188,1143.724a13.6,13.6,0,1,0,8.953-17.078,13.553,13.553,0,0,0-8.953,17.078m25.122-7.814a12.837,12.837,0,0,1-8.444,15.971,12.726,12.726,0,0,1-7.516-24.315,12.7,12.7,0,0,1,15.96,8.344" transform="translate(-679.396 -993.486)" fill="#814c28" fill-rule="evenodd"/>
      <path id="Path_1490" data-name="Path 1490" d="M818.108,1184.6a7.9,7.9,0,0,0,9.841,5.263,8,8,0,1,0-4.7-15.295,7.955,7.955,0,0,0-5.144,10.032m14.3-4.475a7.193,7.193,0,0,1-4.6,8.841,7.077,7.077,0,1,1,4.6-8.841" transform="translate(-721.92 -1035.989)" fill="#814c28" fill-rule="evenodd"/>
      <path id="Path_1491" data-name="Path 1491" d="M860.322,1220.479a2.908,2.908,0,0,0,3.771,1.981,3.006,3.006,0,0,0,1.936-3.745,3.038,3.038,0,0,0-3.809-1.978,2.964,2.964,0,0,0-1.9,3.742m4.74-1.5a1.966,1.966,0,0,1-1.246,2.554,2.055,2.055,0,0,1-2.635-1.31,2.21,2.21,0,0,1,1.267-2.6,2.075,2.075,0,0,1,2.613,1.356" transform="translate(-759.396 -1073.398)" fill="#814c28" fill-rule="evenodd"/>
      <path id="Path_1492" data-name="Path 1492" d="M504.846,1249.521l-2.559-.029-1.99-.227-3.442-.71-.652.856,1.055.6h5.227Z" transform="translate(-438.066 -1101.597)" fill="#814c28" fill-rule="evenodd"/>
      <path id="Path_1493" data-name="Path 1493" d="M947.625,1555.688a7.1,7.1,0,0,1-.31-2.031,24.337,24.337,0,0,0-.014-2.851c-.016-.23.41.709.582.882a17.012,17.012,0,0,1,1.535,2.259c.141.4.795,1.57.795,1.57Z" transform="translate(-836.31 -1368.242)" fill="#814c28" fill-rule="evenodd"/>
      <path id="Path_1494" data-name="Path 1494" d="M708.461,1502.927l2.53-3.311,1.064-2.633,1.855-6.51.614-1.256,2.854-5.232,2.938-5.447,1.2-2.82,1.081-2.91,1.024-3.906-.42,4.081-.616,2.223-.6,3.333-2.019,6.011-2.453,6.658-.39,1.127-.281,1.011-.807,2.155-1.219,3.007.122,1.367-.2,2.4-.086,1.12h-6.2" transform="translate(-625.454 -1296.01)" fill="#814c28"/>
      <path id="Path_1495" data-name="Path 1495" d="M414.348,727.1a2.548,2.548,0,0,0,.038-2.878,33.392,33.392,0,0,0-2.311-3.375c-1.518-1.911-2.687-3.877-2.453-6.5a10.231,10.231,0,0,0-.406-3.828c-1.046-3.359-2.267-6.662-3.437-9.982-1.062-3.02-2.05-2.528-4.191-4.921-.353-.4.059-2.791-.95-3.932a6.971,6.971,0,0,0-2.4-1.209c-.37-.454-.881-1.62-1.2-2.094-1.857-2.739-3.3-3.209-6.342-4.2a5.746,5.746,0,0,1-2.652-1.571,21.524,21.524,0,0,0-6.129-4.8c-2.432-1.454-5.17-2.382-7.177-4.552-1.327-1.429-2.823-2.7-4.277-4A7.534,7.534,0,0,0,363,667.34c-1.754.51-3.5,1.073-5.232,1.675a8.5,8.5,0,0,1-6.575.071,12.9,12.9,0,0,0-4.678-.817c-3.484-.117-6.881.886-10.423.86-3.821-.027-7.642.858-11.473,1.264-3.976.426-7.122,2.556-10.287,4.749a35.355,35.355,0,0,1-3.852,2.106,19.736,19.736,0,0,0-3.215,1.628c-2.573,2.034-5.05,4.2-7.528,6.357-3.272,2.839-6.408,5.836-9.776,8.54-5.862,4.708-9.165,10.894-10.654,18.108a21.816,21.816,0,0,1-5.7,10.965,2.756,2.756,0,0,0-.85,2.659,31.963,31.963,0,0,0,1.033,3.6,6.79,6.79,0,0,1-.148,5.579,10.947,10.947,0,0,0-.563,2.09,25.266,25.266,0,0,0-1.21,4.546c-.234,2.911-.143,5.841-.227,8.763a5.756,5.756,0,0,0,1.757,4.2c.694.743,1.41,1.463,2.143,2.167a9.3,9.3,0,0,1,2.449,4.819,33.015,33.015,0,0,0,1.943,6.136c1.756,3.872,3.733,7.646,5.652,11.444a10.725,10.725,0,0,0,1.207,1.6c.16.343.234.794.494,1.019a35.293,35.293,0,0,0,3.974,3.213,8.016,8.016,0,0,1,3.673,4.321,7.822,7.822,0,0,0,2.656,3.7c1.683,1.192,5.879-.05,7.871.5,3.864,1.048,4.468,4.217,7.833,6.284,2.088,1.273,5.95,1.129,8.155,2.16,2.859,1.331,4.539,4.054,7.428,5.333a19.78,19.78,0,0,0,10.938,1.844c1.924-.151,4.981-1.28,6.888-1.657,6.883-1.369,8.418,1.812,14.816-1.271.626-.3,6.559-3.637,7.21-3.5a11.141,11.141,0,0,0,9.547-1.894c1.606-1.345,2.389-4.582,3.845-6.1,2.289-2.388,4.792-1.6,7.773-3.237.988-.547,2.117-2.942,3.008-3.627,3.088-2.369,2.785-4.973,4.2-8.224.582-1.338,3.091-2.4,3.663-4.215.917-2.9,4.492-5.517,6.132-8.061a23.528,23.528,0,0,0,3.539-12.571c.076-2.94,1.676-5.843,2.716-8.567.36-.942-.2-1.594-.077-2.618.077-.077.95-1.87.964-1.959a19.541,19.541,0,0,0-.477-9.1,6.1,6.1,0,0,1,.783-5.138m-37.01-37.243c1.231-.072,4.406,2.063,5.513,3.683-1.91-1.273-3.661-2.447-5.513-3.683m11.3,9.851a25.731,25.731,0,0,1,2.807,3.5c-.086.049-.172.1-.258.14-3.866-5.282-8.936-7.854-14.3-11.354.148-.615-.16-1.3.508-.856,1.332.884,2.94,2.471,4.2,3.446,2.472,1.912,4.719,3.052,7.043,5.128m-55.815-26.137a58.4,58.4,0,0,1,9.506-.981,89.245,89.245,0,0,1,12.886,1.164,56.7,56.7,0,0,1,20,7.609c2.064,1.242,2.8.935.838,3.548a11.818,11.818,0,0,0-.883,1.55c-2.248-1.057-4.508-2.079-6.73-3.177a60.914,60.914,0,0,0-15.413-5A33.11,33.11,0,0,1,348.408,677a11.18,11.18,0,0,0-6.1-.289c-3.888.807-7.795,1.538-11.688,2.329-1.1.224-2.191.538-3.425.849-.236-1.68-.447-3.216-.68-4.911,2.136-.488,4.2-1.1,6.3-1.409M372.5,687.2a58.86,58.86,0,0,0-20.4-7.559c-1.587-.281-3.072-1.137-4.661-1.488a10.412,10.412,0,0,0-4-.267c-3.787.671-7.539,1.563-11.3,2.392-1.549.342-3.084.747-4.623,1.123-.055-.148-.117-.289-.172-.436a22.767,22.767,0,0,1,2.327-.721c3.062-.588,6.139-1.1,9.194-1.7,1.458-.283,2.888-.68,4.325-1.016a9.5,9.5,0,0,1,4.828.333c3.146.884,6.329,1.614,9.5,2.4a60.16,60.16,0,0,1,16.664,7.271,2.2,2.2,0,0,1,.415.432c-.055.081-.1.165-.157.249-.649-.335-1.32-.639-1.945-1.018m1.541,1.961c-.172,1.135-.708.855-1.365.465a58.584,58.584,0,0,0-15.6-6.8c-1.4-.35-2.848-.522-4.217-.951-2.069-.641-4.074-1.506-6.151-2.128a4.709,4.709,0,0,0-2.943-.214c-4.468,1.988-9.356,2.014-13.974,3.236-.632.171-1.253.392-1.861.588-.582-.914-.024-1.084.537-1.2,2.819-.6,5.649-1.168,8.463-1.778a38.128,38.128,0,0,0,4.993-1.2,8.941,8.941,0,0,1,6.248.167,78.5,78.5,0,0,0,8.22,2.2,56.918,56.918,0,0,1,15.931,6.614q.849.5,1.721,1m-46.454-4c.575-.485.919-1,1.351-1.1,2.583-.592,5.189-1.051,7.776-1.626a38.322,38.322,0,0,0,5.036-1.379c1.95-.741,3.831-1.15,5.716,0,2.721,1.661,5.871,1.77,8.836,2.527a58.132,58.132,0,0,1,16.139,7.028,2.335,2.335,0,0,1,.31.313c-1.217,1.17-2.387,2.364-3.637,3.466a1.284,1.284,0,0,1-1.189.017,39.563,39.563,0,0,0-13.533-5.662A31.586,31.586,0,0,1,346.358,686c-1.5-.8-3.124-.42-4.664.117a8.445,8.445,0,0,0-1.189.494,8.4,8.4,0,0,1-6.879.5c-2.8-.883-5.146.4-7.119,2.254a22.927,22.927,0,0,1-6.055,4.081c-5.229,2.455-9.432,6.306-13.554,10.244a32.582,32.582,0,0,0-7.812,10.873c-.513,1.225-.948,2.519-1.406,3.867-.01.027-.015.05-.024.08a27.57,27.57,0,0,0-1.083,6.017c-.184,3.325-.256,7.108-.43,10.28-1.515-.152-3.208-.268-4.838-.494-.2-.024-.463-1.131-.544-1.434a23.547,23.547,0,0,0-.723-2.839c-1.06-2.523-.372-4.8.534-7.038.015-.035.019-.065.036-.1a.718.718,0,0,0,.031-.069c.16-.383.317-.767.477-1.148,0,0,0,0,0-.007.6-1.579,1.134-3.545,1.478-4.843a3.44,3.44,0,0,1,.066-.343c.031-.109.074-.211.108-.321.048-.2.093-.365.126-.48.01-.035.05-.065.062-.1a31.852,31.852,0,0,1,5.158-9.935,66.8,66.8,0,0,1,15.043-14.274,60.271,60.271,0,0,1,12.723-6.271,3.877,3.877,0,0,1,1.7.048M390.9,724.488c.019.007.031.013.048.019.047.607.1,1.214.148,1.818.026.348.045.673.05.948,0,.082-.008.158-.008.236,0,.038.008.074,0,.108,0,0,.067,4.74.1,7.309,0,.063,0,.1,0,.158a27.353,27.353,0,0,1-2.611,13.12c-2.568,5.541-5.258,11.019-7.971,16.491a16.246,16.246,0,0,1-5.208,6.064,27.526,27.526,0,0,0-4.535,4.026c-2.193,2.479-5.122,3.625-7.983,4.906-1.671.751-3.432,1.3-5.134,1.99-.978.4-1.465.12-1.566-1.2.792-.245,1.64-.487,2.468-.777a40.44,40.44,0,0,0,13.549-7.574,36.666,36.666,0,0,0,9.427-11.657c1.795-3.738,3.506-7.519,5.334-11.245a31.2,31.2,0,0,0,3.1-13.851c0-.663-.019-1.325-.019-1.987v-.005c-.019-1.41-.041-3.366-.064-4.47-.072-1.018-.138-1.931-.16-2.2-.053-.688-1.241-8.925-1.415-9.385-.3-.793-.6-1.588-.9-2.372a42.678,42.678,0,0,0-1.795-5.135c-1.778-3.642-5.05-5.765-8.4-7.732-1.945-1.146-3.969-2.162-5.952-3.245-.537-.3-1.053-.63-1.58-.946,0-.123,0-.246,0-.372.356-.044.8-.251,1.051-.113,4.322,2.388,9,4.158,12.726,7.562a18.774,18.774,0,0,1,4.477,6.917,7.742,7.742,0,0,0,.553.954c.351,1.43.7,2.866,1.062,4.3a2.6,2.6,0,0,1,.086.526c.286,1.472.819,4.38,1.127,6.811m-62.658,67.481a5.371,5.371,0,0,1-1.079-.348c-.42-.249-.795-.473-1.146-.684a9.153,9.153,0,0,1-1.091-.637c-1.43-.854-2.485-1.527-4.413-2.858-4.454-3.088-8.888-6.243-13.079-9.672-2.539-2.086-4.6-4.754-6.881-7.154-.678-.71-1.336-1.427-2.029-2.11-1.2-1.192-2.434-2.364-3.651-3.539-.829-2.343-1.649-4.688-2.49-7.03a1.532,1.532,0,0,0-.468-.657c-2.2-1.734-2.384-4.091-2.248-6.648a50.555,50.555,0,0,0-.232-5.328c-.06-.954-.258-5.574-.384-6.527-.091-.7.1-1.033,1.01-1.041.243,2.444.723,8.531.895,10.972a16.82,16.82,0,0,0,1.91,7.277c1.079,1.947,1.487,4.273,2.236,6.421a4.494,4.494,0,0,0,.675.983,5.465,5.465,0,0,0,.754,1.75c3.9,4.035,7.654,8.248,11.845,11.952a154.915,154.915,0,0,0,12.676,9.622c2.046,1.462,3.134,2.237,4.676,3.256.153.091,4.468,2.836,8.4,2.966,4.007.127,7.664.072,7.664.072,4.024-.863,10.148-2.232,13.255-2.947.077.134,1.031,1.141.738,1.206-2.74.594-7.079,1.83-10.743,2.568a68.034,68.034,0,0,1-7.091.549.163.163,0,0,0-.06,0,17.854,17.854,0,0,1-5.046-.815c-1.943-.592-3.454-1.134-4.611-1.609,0,.007,0,.007,0,.01m-39.965-43.683a29.006,29.006,0,0,0-.556-3.822c.072-.758.017-5.72.112-6.728.382,1.216.458,5.827.761,6.8-.1.146.069.854.069,1,.007,1.983.041,3.966.069,5.946.024,1.794-.155,3.669,1.284,5.05a10.23,10.23,0,0,1,2.625,4.867,22.961,22.961,0,0,0,1.205,3.163,17.9,17.9,0,0,0,1.714,2.458c2.68,2.872,5.427,5.687,8.105,8.572,3.325,3.577,7.372,6.243,11.225,9.157,1.582,1.206,3.279,2.249,4.922,3.371.336.233.649.487.973.727-.057.086,3.215,2.254,3.155,2.333-1.742-1.132-6.862-4.28-8.542-5.5-3.986-2.875-8.134-5.543-11.528-9.144-2.081-2.213-4.028-4.556-6.088-6.785-1.117-1.216-2.353-2.316-3.532-3.47-.747-1.8-1.542-3.57-2.227-5.392a6.944,6.944,0,0,0-2.313-3.285,3.881,3.881,0,0,1-1.611-3.354c.062-1.99.232-3.98.177-5.965m9.411-24.226v-.021c.029-.444.055-.885.079-1.328a2.7,2.7,0,0,1,.174-.6c.131-.887.279-1.829.392-2.242a.17.17,0,0,1,.017-.058c.01-.052,0-.09.02-.148a28.508,28.508,0,0,1,7.133-13.141,59.428,59.428,0,0,1,13.719-11.391c2.191-1.254,4.38-2.516,6.513-3.865a25.133,25.133,0,0,0,2.726-2.2,4.817,4.817,0,0,1,4.924-1.023c2.807,1.015,5.372.431,7.9-.776a6.055,6.055,0,0,1,6.222.311c2.415,1.51,5.255,1.634,7.914,2.365a40.366,40.366,0,0,1,12.31,5.493c.014.134.029.265.041.4-.358.022-.814.211-1.048.055a41.96,41.96,0,0,0-15.857-6.019,14,14,0,0,1-3.332-1.064,8.811,8.811,0,0,0-7.69.1,5.526,5.526,0,0,1-4.85.15c-3.248-1.5-5.809-.5-8.22,1.9a31.972,31.972,0,0,1-5.1,4.046c-1.678,1.1-3.795,1.6-5.313,2.852-6.127,5.076-12.349,10.128-15.554,17.794-.547,1.312-.976,2.689-1.434,4.1a.247.247,0,0,1-.007.041c-.2.632-.685,3.787-.711,4.174,0,0,0,0,0,0-.246,3.662-.411,7.418-.7,11.288-.279-.166-.878-.1-.869-.386.15-3.4.408-7.413.606-10.811Zm85.849,2.478.692,1.045c-.091.066-.241.122-.267.21a26.915,26.915,0,0,0,.1,4.4c.7,7.3-1.391,13.909-4.621,20.317-2.231,4.436-4.659,8.7-8.272,12.149a39.918,39.918,0,0,1-10.836,7.469c-1.766.822-3.544,1.611-5.363,2.278a22.893,22.893,0,0,1-2.914.532,8.407,8.407,0,0,0-1.723.583A26.967,26.967,0,0,1,347.9,776.8a24.587,24.587,0,0,1-7.707,1.691,11.561,11.561,0,0,1-8.289-3.22,79.454,79.454,0,0,0-8.482-5.5c-5.983-3.206-10.265-8.164-14.122-13.587a10.685,10.685,0,0,1-.6-1.086c-1.179-2.858-2.363-5.709-3.578-8.547-.073-.185-.425-1.721-.56-2.333a52.753,52.753,0,0,1-.425-19.589,4.911,4.911,0,0,1,.155-.533,19.428,19.428,0,0,1,.652-2.987,29.956,29.956,0,0,1,6.554-11.4c1.668-1.909,3.191-3.943,4.728-5.961a8.9,8.9,0,0,1,5.821-3.77,11.2,11.2,0,0,0,5.64-2.677,8.346,8.346,0,0,1,7.234-2.37c2.136.337,4.406-.247,6.621-.308,7.542-.23,14.74,1.024,21.249,5.153.938.587,1.241,1.119.606,2.123a11.72,11.72,0,0,0-.788,2.026c-1.079-.961-1.85-1.658-2.632-2.339a10.011,10.011,0,0,0-5.938-2.514c-4.115-.3-8.227-.852-12.334-.8a30.911,30.911,0,0,0-8.325,1.507c-3.939,1.177-7.8,2.631-11.6,4.192a9.175,9.175,0,0,0-3.315,2.664c-2.236,2.7-4.27,5.563-6.442,8.319-2.072,2.634-2.967,5.739-3.709,8.916a45.238,45.238,0,0,0-.931,15.275c.031.317.274,1.945.389,2.4.613,2.458,1.518,4.872,1.893,7.359.654,4.369,3.353,7.37,6.158,10.382a10.749,10.749,0,0,0,5.446,5.831q7.081,3.05,14.11,6.241a16.3,16.3,0,0,0,8.984,1.465,51.019,51.019,0,0,0,12.358-3.767,36.14,36.14,0,0,0,17.564-14.693,37.581,37.581,0,0,0,5.752-23.868c-.019-.169-.217-.327-.332-.487a8.115,8.115,0,0,0-.563-5.035,24.81,24.81,0,0,0-.2-2.5c-.385-2.154-.785-4.309-1.275-6.441a5.518,5.518,0,0,0-2.408-3.337c-2.141-1.482-4.22-3.056-6.346-4.559-1.172-.838-2.389-1.608-3.737-2.514.58-.9,1.181-1.825,1.85-2.862,1.473.919,2.883,1.8,4.289,2.68,1.914,1.2,3.774,2.508,5.747,3.605a9.609,9.609,0,0,1,4.948,7.271c.317,1.85.733,3.684,1.134,5.517a2.8,2.8,0,0,0,.427.74c-.021,1.561-.7,3.913-.031,3.957m-84.479,6.974c.067-3.571.487-10.928.52-10.915a12.307,12.307,0,0,1,.716-2.432s0,0,0-.007c.067-.259.146-.554.248-.931,1.6-5.826,5.057-10.442,9.382-14.468a83.365,83.365,0,0,1,6.955-6.085c1.814-1.357,4.031-2.17,5.979-3.377a41.675,41.675,0,0,0,3.864-2.936,12.389,12.389,0,0,0,1.186-1.131,5.355,5.355,0,0,1,6.69-1.293,5.8,5.8,0,0,0,4.881.146c.573-.25,1.167-.443,1.761-.645a7.412,7.412,0,0,1,4.692-.185c2.933.9,5.917,1.644,8.874,2.468a36.933,36.933,0,0,1,10.812,4.65c.282.193.551.4.835.611-.716.885-1.377,1.7-2.112,2.6a4.612,4.612,0,0,1-.737-.356c-5.986-4.135-12.795-5.357-19.858-5.6-1.659-.06-3.332.273-5,.325a44.539,44.539,0,0,1-5-.065,6.263,6.263,0,0,0-4.886,1.436,14.744,14.744,0,0,1-7.788,3.947,7.1,7.1,0,0,0-4.551,2.671c-2.771,3.382-5.568,6.751-8.208,10.234a25.537,25.537,0,0,0-4.43,9.261c-.017.079-.045.156-.064.234l0,0c-.055.186-.482,2.179-.663,3.026a52.254,52.254,0,0,0-.508,12.8,91.879,91.879,0,0,0,2.924,12.751c.661,1.643,1.5,3.211,2.272,4.807a35.6,35.6,0,0,0,1.938,3.445,42.746,42.746,0,0,0,16.091,13.8,17.419,17.419,0,0,1,3.434,2.347,32.9,32.9,0,0,0,5.081,3.522c4.714,1.933,10.041.878,16.981-1.285a20.773,20.773,0,0,1,1.454,3.88c-2.441.771-6.422,1.891-8.876,2.721a31.362,31.362,0,0,1-8.189,1.141l-.045,0-.146,0c-.25-.007-.506-.007-.723-.022a.248.248,0,0,1-.06-.017c-4.637-.444-7.174-4.79-7.578-5.56-2.959-2.287-5.866-4.661-8.943-6.771a48.314,48.314,0,0,1-10.919-10.832,37.913,37.913,0,0,1-4.933-8.615c-.139-.336-.737-2.091-.909-2.63a48.717,48.717,0,0,1-2.28-11.6,7.073,7.073,0,0,1,.348-1.818,18,18,0,0,1-.525-3.244m78.508,11.461a36.122,36.122,0,0,1-13.394,18.883,50.093,50.093,0,0,1-15.628,7.227,18.542,18.542,0,0,1-14.482-1.354c-3.819-2.01-7.874-3.548-11.845-5.256a8.511,8.511,0,0,1-4.454-3.62,7.348,7.348,0,0,0-.986-1.136,4.872,4.872,0,0,0-.568-1.117c-2.988-3.314-5.337-6.956-6.127-11.483-.377-2.184-.988-4.325-1.52-6.481a6.248,6.248,0,0,0-.5-1.06c0-1.589.014-3.182,0-4.775a40.267,40.267,0,0,1,3.1-16.593,18.477,18.477,0,0,1,2.317-3.5c1.682-2.244,3.513-4.384,5.11-6.689a8.644,8.644,0,0,1,5.707-3.884,16,16,0,0,0,4.637-1.875,21.4,21.4,0,0,1,6.9-2.357,43.536,43.536,0,0,1,9.021-.739,88.305,88.305,0,0,1,11.115,1.3c2.42.394,3.964,2.381,5.692,3.943.164.157.064.612.11,1.258-.923-.872-1.575-1.48-2.215-2.092a8.689,8.689,0,0,0-5.983-2.539c-3.649-.11-7.306-.464-10.955-.414-5.912.083-11.334,2.005-16.581,4.69a22.577,22.577,0,0,0-8.542,7.247,8.7,8.7,0,0,1-2.406,2.026,9.016,9.016,0,0,0-3.926,6.3c-.719,4.39-1.224,8.823-1.747,13.244a7.728,7.728,0,0,0,.365,2.145,35.222,35.222,0,0,0,.251,6.143c.981,4.608,2.024,9.214,5.191,13.012a40.49,40.49,0,0,1,3.229,5.265c.878,2.11,4.862,4.088,7.174,3.566,3.95,1.529,7.883,3.114,11.862,4.572a16.954,16.954,0,0,0,7.955.813,38.152,38.152,0,0,0,14.437-4.889c11.191-6.435,16.967-16.343,17.819-29.206a3.78,3.78,0,0,0-.272-1.128c0-1.654.112-3.328-.042-4.969-.189-1.965-.609-3.909-.931-5.857a9.47,9.47,0,0,0-3.3-8.7c-1.46-1.086-2.752-2.4-4.143-3.589-1.246-1.054-2.518-2.073-3.785-3.1-.36-.288-.752-.536-1.115-.787.167-.861.58-.935,1.167-.519q2.155,1.5,4.305,3.012c1.561,1.1,3.074,2.273,4.69,3.28a5.028,5.028,0,0,1,2.5,3.235c.511,2.369.962,4.75,1.458,7.123a9.838,9.838,0,0,0,.425,1.2q.308,2.933.609,5.869c-.012.547-.057,1.1-.031,1.633a36.16,36.16,0,0,1-1.666,12.725m-.814-10.588a4.571,4.571,0,0,0,.246.88c-.322,1.964-.58,3.944-.983,5.893a32.917,32.917,0,0,1-13.232,20.619,41.589,41.589,0,0,1-13.89,6.294,19.832,19.832,0,0,1-12.408-.53c-2.733-1.04-5.411-2.225-8.172-3.179a31.958,31.958,0,0,0-4.384-.878c-1.511-.793-3.019-1.594-4.53-2.383-1.177-2.182-2.079-4.575-3.577-6.5-3.27-4.186-4.363-9.042-5.048-14.1-.219-1.609-.358-3.237-.537-4.853.568-4.617,1.1-9.237,1.711-13.846a8.689,8.689,0,0,1,3.664-6.429,17.7,17.7,0,0,0,4.482-4.566c1.614-2.261,4-3.471,6.408-4.572,2.867-1.306,5.74-2.632,8.716-3.65,3.84-1.319,7.859-1.287,11.871-.935a51.238,51.238,0,0,0,5.592.3,8.471,8.471,0,0,1,6.537,2.58,12.069,12.069,0,0,1,1.7,1.98,6.329,6.329,0,0,1-.976-.734,8.812,8.812,0,0,0-6.89-2.881c-3.3.012-6.6-.176-9.907-.18a30.817,30.817,0,0,0-9.263,1.434,30.213,30.213,0,0,0-8.375,4.072c-1.778,1.245-3.344,2.8-5.019,4.19a20.729,20.729,0,0,1-3.568,2.779c-2.711,1.367-3.869,3.618-4.279,6.445-.494,3.433-.993,6.87-1.456,10.311a5.194,5.194,0,0,0,.155,1.338,9.545,9.545,0,0,0-.191,1.71c.074,1.407.341,2.809.336,4.209a22.55,22.55,0,0,0,4.413,13.237,21.6,21.6,0,0,1,2.948,5.822,5.526,5.526,0,0,0,4.692,4.179,52.781,52.781,0,0,1,10.661,2.983,30.178,30.178,0,0,0,6.215,1.57c7.272,1.055,13.8-1.312,19.919-4.925,6.619-3.9,10.85-9.878,13.688-16.9a14.558,14.558,0,0,0,1.425-6.678c.029-2.288.146-4.57.076-6.853-.088-2.718-.332-5.428-.527-8.143a3.5,3.5,0,0,0-.277-.826c.394-1.94,0-3.984-1.58-4.889-3.351-1.915-5.489-4.992-8.174-7.546-.592-.567-1.213-1.1-1.819-1.647.1-.133.194-.265.294-.4.9.589,1.854,1.123,2.694,1.784s1.6,1.478,2.4,2.212a24.88,24.88,0,0,0,3.405,3,7.077,7.077,0,0,1,3.516,5.972,12.439,12.439,0,0,0,.551,2.21,5.105,5.105,0,0,0-.179,1.145q.426,4.943.921,9.881m-6.241-2.678a28.316,28.316,0,0,1,1.117,4.671,8.893,8.893,0,0,1-1.5,6.493,104.263,104.263,0,0,1-7.093,9.6,25.849,25.849,0,0,1-29.275,6.823q-2.885-1.129-5.836-2.091a5.932,5.932,0,0,1-3.711-3.445,27.664,27.664,0,0,0-3.045-4.973,25.114,25.114,0,0,1-4.812-12.645,14.18,14.18,0,0,1,.683-7.221c.654-1.654.761-3.517,1.327-5.217a9.186,9.186,0,0,1,1.792-3.447c1.711-1.793,3.7-3.323,5.554-4.991a25.9,25.9,0,0,1,22.28-6.639,24.291,24.291,0,0,0,7.2.466,3.8,3.8,0,0,1,3.339,1.6,1.28,1.28,0,0,1,.083,1.027c-.215.693-.544,1.356-.826,2.026-.324.5-.652.991-.885,1.346-1.06-.448-1.993-.928-2.983-1.247-1.521-.491-3.07-.89-4.619-1.292a22.066,22.066,0,0,0-13.244.515,22.345,22.345,0,0,0-12.833,11.368c-1.434,2.873-2.776,5.9-2.723,9.151a24.91,24.91,0,0,0,5.246,15.377,22.709,22.709,0,0,0,36.4-.966,66.83,66.83,0,0,1,4.468-6.014c2.549-2.891,3.069-5.212,1.456-8.7-.936-2.027-1.964-3.995-1.859-6.343a4.845,4.845,0,0,0-1.895-3.739c-1.8-1.716-3.549-3.5-5.225-5.332-1.308-1.439-1.241-1.494-.3-3.192a1.091,1.091,0,0,0,.067-.329c.418-.45.835-.9,1.365-1.479a7.435,7.435,0,0,1,.659.9,14.121,14.121,0,0,0,7.821,7.157c1.848.66,2.313,1.891,2,3.877a15.391,15.391,0,0,1-.423,1.949,7.925,7.925,0,0,0,.236,4.951M340.589,715.84a19.067,19.067,0,0,0-15.819,16.09c-1.57,11.511,7.1,22.49,19.821,21.84,7.392-.372,12.864-4.193,16.158-10.907a35.923,35.923,0,0,0,2.305-6.011,7.279,7.279,0,0,0-.026-3.467c-1.212-5.282-3.191-10.167-7.723-13.658.282-.417.506-.768.745-1.11.224-.314.458-.611.781-1.043.752.884,1.4,1.7,2.1,2.467q1.779,1.938,3.621,3.817a6.978,6.978,0,0,1,1.967,3.5,35.573,35.573,0,0,0,1.964,6.234c1.086,2.557,1.026,4.768-.809,6.981a74.869,74.869,0,0,0-4.411,6.052,21.138,21.138,0,0,1-32.984,2.944,22.07,22.07,0,0,1-5.928-12.508c-1.886-12.543,10.141-26.893,26.229-23.144a52.791,52.791,0,0,1,5.566,1.774,14.324,14.324,0,0,1,2.036,1.13c-.475.97-.848,1.731-1.239,2.537a19.241,19.241,0,0,0-14.354-3.515m20.22,13.337c2.184,6.918,2.155,6.925-1,13.516a18.031,18.031,0,0,1-29,4.857,16.909,16.909,0,0,1-4.408-7.339A18.1,18.1,0,0,1,339.69,716.97a17.247,17.247,0,0,1,13.764,2.561,17.946,17.946,0,0,1,7.356,9.645m5.854-15.776a13.275,13.275,0,0,0,4.594,4.073,4.541,4.541,0,0,1,2.561,3.56,11.685,11.685,0,0,0,.413,1.335c-.045,1.533-.193,3.072-.124,4.6.155,3,.449,5.992.635,8.99.072,1.23.021,2.467.031,3.7-.189.556-.413,1.1-.556,1.667a34.456,34.456,0,0,1-8.532,15.292,32.179,32.179,0,0,1-11.917,7.656,25.234,25.234,0,0,1-17.27.911c-3.969-1.245-7.749-3.134-11.981-3.482-2.747-.225-4.227-1.875-5.108-4.443a21.947,21.947,0,0,0-2.7-5.153,24.48,24.48,0,0,1-4.06-9.9c-.492-2.954-.439-6-.649-9-.017-.206-.208-.4-.317-.6.546-2.546,1.138-5.088,1.623-7.646.224-1.189.224-2.416.354-3.62.288-2.784,1.986-4.449,4.322-5.71a11.4,11.4,0,0,0,2.831-2.2,31.448,31.448,0,0,1,14.1-8.641,26.3,26.3,0,0,1,8.253-1.244c3.819.095,7.645.243,11.463.424,2.478.119,4.029,1.87,5.645,3.463a.7.7,0,0,1,.079.618c-.286.672-.623,1.319-1.029,2.146-1.769-2.308-4.069-2.111-6.473-1.907a16.494,16.494,0,0,1-4.051-.475c-9.8-1.688-18.167,1.053-25.153,8.151a22.539,22.539,0,0,1-3.165,2.765,7.637,7.637,0,0,0-3.165,5,58.068,58.068,0,0,1-1.695,6.331,12.662,12.662,0,0,0-.119,6.492,28,28,0,0,1,.518,3.244c.241,3.333,2.089,5.925,3.759,8.613,1.444,2.318,2.783,4.7,4.294,6.965a5.546,5.546,0,0,0,2.306,2.194c4.213,1.516,8.416,3.234,12.769,4.112,8.122,1.633,15.423-.69,21.853-5.848a35.011,35.011,0,0,0,6.823-8.145c1.089-1.621,2.368-3.117,3.385-4.774a10.879,10.879,0,0,0,1.012-8.525c-.31-1.329-.707-2.64-1.124-3.946-.592-1.845.21-3.557.47-5.318.394-2.679-.282-4-2.7-5.183a16.137,16.137,0,0,1-3.668-2.039,24.762,24.762,0,0,1-2.933-3.657,1.378,1.378,0,0,1-.112-.207c-1.387-2.289-1.387-2.289.532-4.677a53.1,53.1,0,0,1,3.976,4.057m-68.541,23.483c.238,1.83.375,4.647.752,6.414.546,2.551,1.267,5.069,1.952,7.584a57.442,57.442,0,0,0,2.49,5.941,51.364,51.364,0,0,0,16.974,18.05,67.852,67.852,0,0,1,6.609,5.222,12.606,12.606,0,0,1,2.556,2.2c3.253,3.325,6.893,3.143,9.855,3.148.981-.178,1.874-.352,2.451-.506,3.265-.856,6.48-1.9,9.693-2.947,1.663-.549,1.7.2,2.033.909a3.628,3.628,0,0,1-.823.345q-6.383,1.633-12.776,3.234c-.441.108-2.293.532-3.353.746h0c-.286.057-.527.105-.649.119-.045.005-.076-.005-.117,0-3.938.36-6.559-3.543-7.229-4.124-.637-.564-1.277-1.12-1.943-1.647-3.53-2.812-7.034-5.675-10.649-8.382A50.38,50.38,0,0,1,307,764.319a36.645,36.645,0,0,1-6.115-9.792c-.05-.137-1.3-2.8-1.707-4.064-.143-.928-.282-1.863-.432-2.794-.463-2.841-1.265-7.43-1.664-10.288-.062-.458.1-.427,1.041-.5m-.769,8.715c.3,1.549.847,3.055,1.284,4.58.377,1.335.738,2.68,1.141,4.011.048.151.578,1.357.757,1.8a37.467,37.467,0,0,0,4.771,7.749c4.342,6.068,10.239,10.324,16.132,14.647,2.224,1.628,4.2,3.606,6.284,5.43a1.443,1.443,0,0,0,.262.225,3.042,3.042,0,0,1,1.506,1.132s.009,0,.009,0c.248.319.5.779.881,1.208a15.843,15.843,0,0,0,4.733,2.057c1.1.122,4-1.07,5.876-1.223,3.043-.842,6.218-1.724,8.439-2.331,1.27-.348,2.544-.686,3.836-.952.231-.055.806.228.828.405a40.292,40.292,0,0,1,.7,4.472c0,.29-1.114.782-1.52.878-3.449.791-6.912,1.515-10.373,2.261-.306.067-.613.115-.921.156-.463.07-.969.158-1.477.24h0c-1.776.523-2.15.177-5.986.034a15.448,15.448,0,0,1-7.291-2.422,8.329,8.329,0,0,1-1.449-.921c-5.571-4.081-11.167-8.128-16.554-12.432-2.446-1.957-4.42-4.5-6.621-6.764-1.055-1.086-2.151-2.139-3.189-3.237-1-1.077-1.95-2.2-2.928-3.292a10.682,10.682,0,0,1-.632-1.5c-.924-2.6-1.365-5.363-2.871-7.78a8.641,8.641,0,0,1-.9-3.479c-.539-4.608-.637-11-.778-12.851-.031-.343.124-.386.6-.432,1.575-.146,2.186.089,4.375-.129.367,2.362.615,6.172,1.074,8.456m58.2,33.795c-.606-1.074-1.088-2.213-1.687-3.491,9.389-3.5,17.781-8.183,23.048-16.92,5.062-8.394,9.344-17.083,7.893-27.68.029.009.05.016.079.026-.012-.414-.029-.912-.045-1.4-.007-.243-.367-4.889-.692-7.519-.091-.1-.191-.216-.277-.319a5.017,5.017,0,0,0,.038-1.278c-.423-2.033-.9-4.052-1.356-6.076-.733-3.325-2.954-5.343-5.78-6.977-3.1-1.791-6.067-3.794-9.337-5.861.764-.98,1.463-1.874,2.205-2.827.874.446,2.279,1.089,3.607,1.864,2.516,1.474,5.043,2.95,7.477,4.562,3.069,2.034,4.7,5.134,5.859,8.535a14.117,14.117,0,0,0,.659,1.42c.164,1,.355,2,.485,3a.3.3,0,0,1,.017.063c0,.048.012.12.024.211a.068.068,0,0,0,0,.029c.2,1.441,1.439,7.526,1.217,8.357h0c.04.5,0,.7-.177.841-.014.076-.031.157-.043.238.084,1.4.212,3.4.3,5.24a3.1,3.1,0,0,1,.045.333c.036.623.043,1.244.043,1.863a8.977,8.977,0,0,1-.067,2.1.022.022,0,0,0,0,.01,31,31,0,0,1-3.31,11.919c-2.453,4.846-4.759,9.785-7.444,14.494a24.819,24.819,0,0,1-4.752,5.419c-2.575,2.431-5.119,4.949-8.442,6.407-2.852,1.247-5.687,2.532-8.554,3.743a1.11,1.11,0,0,1-1.033-.333m-30.466-95.266a62.95,62.95,0,0,0-20.447,12.924c-5.854,5.606-10.9,11.707-13.053,19.754-.523,2-1.461,4.588-1.439,4.584-2.363,4.029-1.487,8.693.086,12.736-.124.068-.246.141-.372.216-.327-.14-.859-.2-.95-.445a39.938,39.938,0,0,1-1.881-5.6c-.453-2.17.628-4.006,1.544-5.854.365-.756,2.327-6.615,2.463-7.068a.554.554,0,0,1,.055-.109,34.47,34.47,0,0,1,4.941-9.923,62.564,62.564,0,0,1,15.232-15.091c3.244-2.245,6.969-3.793,10.475-5.638a8.352,8.352,0,0,1,1.83-.766,2.228,2.228,0,0,1,1.516.282m-34.426,28.917c-.33.752-1.754,5.184-2.239,6.52s-2.38,6.467-2.492,7.342c-.05,2.286,1.141,4.92,1.809,7.134a10.254,10.254,0,0,1-1.912-8.123,10.756,10.756,0,0,1,.761-2.3c.809-1.836,2.258-6.021,2.907-7.927.365-1.065.709-2.145,1.127-3.194,2.305-5.807,6.031-10.65,10.274-15.134a56.553,56.553,0,0,1,16.862-12.6c1.652-.786,3.336-1.51,5.014-2.241a1.97,1.97,0,0,1,1.1-.121c-14.848,6.325-26.45,15.923-33.208,30.647m-7.712,8.9c.456-.018,2.723-7.9,2.21-8.2,1.1-2.454,2.1-4.906,3.284-7.269,3.635-7.266,8.754-10.157,14.879-15.454a57.26,57.26,0,0,1,13.473-8.815c.812-.375,1.48-4.071,2.239-4.533a1.543,1.543,0,0,1,2.2.321c.778.94,1.422,1.991,2.272,3.2a60.39,60.39,0,0,0-21.382,13.562c-5.79,5.818-10.8,12.1-13.332,20.1-.523,1.687-2.334,6.933-2.3,6.931-2.633,3.973-2.2,8.245.162,12.16-1.752.3-3.327.147-4.943.423a54.764,54.764,0,0,1,1.241-12.433m65.556,74.838c-1.511.132-5.631,0-8.024-.046h-.026c-.473-.009-.883-.021-1.182-.021a1.286,1.286,0,0,1-.327-.05c-4.346-.322-14.7-1.688-18.965-3.973a.027.027,0,0,1-.019-.015c-4.706-1.724-7.988-4.011-13.107-7.785a60.259,60.259,0,0,1-13.712-13.988,6.64,6.64,0,0,0-.964-.94c-.442-.849-.823-1.741-1.329-2.547-4.131-6.591-7.2-16.8-8.764-24.393-.229-1.113-.406-3.63.711-3.958a5.292,5.292,0,0,0,1.308-.887c.525-.055,1.888-.122,2.556-.2.117.382.4,5.754.539,6.219-.045.091-.136.187-.136.283.014,2.635.055,5.277.055,7.919-.007,1.966-.167,4.031,1.494,5.442a8.568,8.568,0,0,1,2.888,4.529,7.046,7.046,0,0,0,.773,1.829c.516.849,2,3.323,2.282,3.637,2.781,3.062,5.549,6.138,8.406,9.125,4.055,4.232,8.881,7.5,13.74,10.686,2.756,1.8,5,3.1,7.58,4.584.265.151.563.326.835.482a57.211,57.211,0,0,0,14.463,2.834c1.824-.092,4.475-.129,5.2-.276,2.67-.544,7.841-1.3,10.473-1.978,1.317-.338,1.668.218,1.893,1.257.06.261.138.523.291,1.108-2.237.28-6.819.94-8.928,1.122m10.377-10.324c-.594-.944-1.014-2.007-1.522-3.016-.358-.717.148-.878.652-1.06,1.695-.583,3.413-1.105,5.065-1.774,3.63-1.46,7.127-3.126,9.623-6.358a9.665,9.665,0,0,1,2.563-2.206c3.448-2.11,5.57-5.308,7.279-8.826,2.492-5.138,4.988-10.279,7.3-15.5a26.759,26.759,0,0,0,2.308-12.89c-.119-1.02-.048-4.157.014-5.94.064-4.438-1.773-12.6-2.094-13.71-.188-.645-.374-1.29-.573-1.927a5.046,5.046,0,0,0-.573-.947,37.7,37.7,0,0,0-1.9-4.563c-2.348-4.089-6.294-6.281-10.286-8.372-1.821-.951-3.645-1.89-5.606-2.9,1.558-1.39,2.969-2.647,4.5-4.015,1.391.8,2.955,1.592,4.4,2.56,2.131,1.435,4.186,3,6.275,4.5a18.038,18.038,0,0,1,5.043,6.214c.143.254.465.411.7.614a8.5,8.5,0,0,0,.386,1.756,32.643,32.643,0,0,1,2.754,7.114c.005.017.015.024.019.042a80.467,80.467,0,0,1,1.479,9.146v.005a11.111,11.111,0,0,1,.038,4.21c-.007.036,0,.065-.01.1a23.1,23.1,0,0,0-.2,5.407c-.052.244.458,5.609-.227,8.247A141.864,141.864,0,0,1,391.34,756.4a85.042,85.042,0,0,1-8.781,17.994,9.49,9.49,0,0,1-2.766,2.633,23.352,23.352,0,0,0-6.055,5.088,10.326,10.326,0,0,1-4.933,3.422c-2.549.844-5.112,1.625-7.688,2.388-1.248.369-1.728-.686-2.23-1.467m34.493-78.728c.124-.046.236-.092.361-.139q1.267,3.228,2.54,6.462l-.232.092c-.892-2.136-1.776-4.279-2.669-6.415m-32.912,81.356c2.9-.921,6.4-2.016,9.1-2.863a12.693,12.693,0,0,0,5.086-3.625,24.476,24.476,0,0,1,4.456-3.879,18.21,18.21,0,0,0,6.544-7.464,110.287,110.287,0,0,0,8.067-18.968,25.537,25.537,0,0,1,1.236-3.16.032.032,0,0,1,0-.021c.484-1.719,3.167-10.475,2.637-14.525-.05-.448-.208-2.185-.2-2.667v-.025c0-.008,0-.01,0-.011.6-7.646-.983-14.474-1.024-16.427.336,1.744,1.907,12.762,1.566,15.5v.017a26.077,26.077,0,0,0,.661,5.321c.014.033,0,.048.01.072a4.168,4.168,0,0,1,.181,2.772v.029c-.167,1.312-3.229,9.924-3.535,10.876-.009.024-.019.038-.026.06-.721,2.266-1.441,4.529-2.2,6.783a79.514,79.514,0,0,1-9.349,19.51,18.175,18.175,0,0,1-2.957,3.126c-1.6,1.431-3.346,2.676-4.926,4.124-2.909,2.659-6.43,4.064-10.11,5.177a36.13,36.13,0,0,0-3.685,1.151c-.876.424-.91-.1-1.542-.878m1.4,2.292c-.021-.1-.05-.184-.071-.28.336-.113.67-.242,1.014-.321a34.187,34.187,0,0,0,15.695-8.226c1.583-1.549,3.673-2.673,4.94-4.426a78.3,78.3,0,0,0,5.812-9.6,74.576,74.576,0,0,0,6.019-16.107c.408-1.563,3.029-9.713,4.205-13.154.246-.7-.322-2.99-.554-4.059a5.693,5.693,0,0,1-.093-.922.171.171,0,0,0-.012.032c0-.046,0-.1.007-.144-.036-1.212.1-2.732.1-2.732.227-4.085-1.654-15.118-1.608-16.371.41,1.284,2.322,13.978,2.069,16.453v0a9.142,9.142,0,0,0,.153,2.549c.174,1.159.251,4.981.317,4.988-.143.666-2.613,9.42-2.819,10.063-.873,2.834-1.733,5.67-2.683,8.483-2.456,7.253-5.413,14.278-10.053,20.435-2.32,3.091-5.442,5.354-8.564,7.553A37.3,37.3,0,0,1,362.7,791.3a7.166,7.166,0,0,1-.838.079m43.324-50.739a61.915,61.915,0,0,1-8.588,26.209,59.916,59.916,0,0,1-20,20.509c-3.234,2-8.595,4.352-12,6.078-.993.506-1.477-.166-1.816-.64,3.067-1.328,8.1-3.22,10.984-4.848a38.559,38.559,0,0,0,16.3-17.411,88.4,88.4,0,0,0,6.477-17.565c.353-1.511,1.4-2.894,1.575-4.4a23.964,23.964,0,0,1,1.907-7.083c.007-.041.014-.067.021-.11a21.784,21.784,0,0,0,.041-9.173c-.019-.014-.036-.032-.055-.048-.208-.152-.239-.717-.158-1.122v0h.007a1.1,1.1,0,0,1,.041-.192c.95-2.553.582-5.082-.115-7.647a.013.013,0,0,0,.007,0c-.33-1.261-.876-3.208-1.134-4.2a.152.152,0,0,1-.038,0,23.6,23.6,0,0,1-.434-2.924,21.076,21.076,0,0,0-3.151-9.833c-.365-.645-.671-1.324-1.053-1.957a2.65,2.65,0,0,0-.632-.536,29.359,29.359,0,0,0-2.4-4.425,26.52,26.52,0,0,0-3.681-3.388q-1.621-1.43-3.286-2.814c-1.823-1.5-3.666-2.982-5.585-4.535.83-.91,1.788-1.96,2.926-3.2,2.107,1.92,4.379,3.722,6.31,5.83,2.449,2.661,4.618,5.583,6.916,8.386a4.044,4.044,0,0,0,.675.557c.6,1.124,1.208,2.239,1.776,3.375,1.3,2.576,2.692,5.118,3.814,7.772a22.561,22.561,0,0,1,1.05,4.546c.115.571,2.363,6.939,2.4,7.142.666,3.285.919,17.37.893,17.657" transform="translate(-239.814 -588.513)" fill="#814c28" fill-rule="evenodd"/>
    </g>
  </g>
</svg>
