<svg id="Padreza_logo" xmlns="http://www.w3.org/2000/svg" xmlns:xlink="http://www.w3.org/1999/xlink" width="396.999" height="529.24" viewBox="0 0 396.999 529.24">
  <defs>
    <clipPath id="clip-path">
      <rect id="Rectangle_321" data-name="Rectangle 321" width="396.999" height="529.24" fill="#814c28"/>
    </clipPath>
  </defs>
  <g id="Group_818" data-name="Group 818" clip-path="url(#clip-path)">
    <path id="Path_1480" data-name="Path 1480" d="M25.289,2077.45c14.245,0,22.51,4,22.51,21.772,0,20.579-11.253,24.564-23.6,24.564H20.511c-2.287,0-2.684.1-2.684.8v19.772a.949.949,0,0,1-1,1H.992a.943.943,0,0,1-.992-1v-65.9a.947.947,0,0,1,.992-1.009ZM21.508,2110.5c5.482,0,8.068-1.992,8.068-10.781,0-7.682-2.491-9.686-7.368-9.686H18.819c-.8,0-.992.407-.992.8V2109.8c0,.4.194.7.992.7Z" transform="translate(0 -1616.114)" fill="#814c28"/>
    <path id="Path_1481" data-name="Path 1481" d="M253.894,2130.379c-.2-.606-.4-.606-.795-.606H237.66a.9.9,0,0,0-1,.7l-3.082,13.878c-.3.792-.7,1-1.3,1H215.953c-.5,0-.9-.3-.7-1,2.887-12.377,12.945-51.225,17.028-65.9a1.281,1.281,0,0,1,1.2-1.008h25.592c.7,0,1,.411,1.2,1.008,3.979,14.879,14.636,56.908,16.631,65.9.1.592,0,1-.7,1H258.275a1.124,1.124,0,0,1-1.29-1ZM251.7,2116.4c.2,0,.4-.1.4-.5-.7-4.1-3.389-18.072-4.684-23.767-.1-.29-.3-.4-1.588-.4-1.2,0-1.5.113-1.6.4-1.5,5.695-4.485,19.669-5.18,23.767,0,.395.1.5.4.5Z" transform="translate(-167.535 -1616.114)" fill="#814c28"/>
    <path id="Path_1482" data-name="Path 1482" d="M553.115,2077.45c21.608,0,26.585,15.887,26.585,33.959s-4.977,33.946-26.585,33.946H527.221a.944.944,0,0,1-.993-1v-65.9a.948.948,0,0,1,.993-1.009Zm-2.3,13.987H544.65a.529.529,0,0,0-.6.605v38.538c0,.5.1.6.5.6h6.375c8.762,0,10.058-5.293,10.058-20.271,0-14.476-1.3-19.469-10.161-19.469" transform="translate(-409.671 -1616.114)" fill="#814c28"/>
    <path id="Path_1483" data-name="Path 1483" d="M842.044,2044.61c-1.394-3.392-1.692-3.6-2.884-3.6h-3.284c-.8,0-1.2,0-1.2.7v22.563a.945.945,0,0,1-1,1H817.747a.949.949,0,0,1-1-1v-65.9a.953.953,0,0,1,1-1.009h22.7c16.334,0,24.5,4.6,24.5,18.578,0,7.794-2.292,13.381-7.17,17.773-1.2,1-1.4,1.3-1.4,1.791a14.659,14.659,0,0,0,1.4,3.311l12.151,25.45a.678.678,0,0,1-.7,1H851.406c-.695,0-.992-.1-1.295-.9Zm-14.24-70.094c2.192,0,2.987,0,4.182,1.4l6.371,6.7a1.737,1.737,0,0,0,1,.294,1.934,1.934,0,0,0,1.2-.294l6.574-6.7c1.3-1.3,1.99-1.4,4.182-1.4h7.869c.6,0,1.191.407,1,1L848.92,1991.6a1.868,1.868,0,0,1-1.5.99H831.585a1.862,1.862,0,0,1-1.489-.99l-11.257-16.082c-.2-.592.4-1,1-1Zm19.022,44.83c0-6.786-1.692-9.283-8.068-9.283h-1.89c-1.9,0-2.193.2-2.193.8v17.48c0,1.095.894,1.195,4.083,1.195,5.974,0,8.068-2.493,8.068-10.187" transform="translate(-635.843 -1536.039)" fill="#814c28"/>
    <path id="Path_1484" data-name="Path 1484" d="M1092.466,2078.457a.949.949,0,0,1,.992-1.008h36.953a.954.954,0,0,1,.993,1.008v12.477a.946.946,0,0,1-.993,1H1111.19a.525.525,0,0,0-.6.592v10.594a.528.528,0,0,0,.6.594h17.425a.943.943,0,0,1,1,1V2116.6a.946.946,0,0,1-1,1H1111.19a.532.532,0,0,0-.6.607v11.666a.532.532,0,0,0,.6.606H1131.7a.939.939,0,0,1,1,1v12.878a.946.946,0,0,1-1,1h-38.243a.945.945,0,0,1-.992-1Z" transform="translate(-850.49 -1616.114)" fill="#814c28"/>
    <path id="Path_1485" data-name="Path 1485" d="M1302.59,2145.354a.95.95,0,0,1-1-1v-11.385a8.859,8.859,0,0,1,1.1-3.284L1323,2094.726a2.832,2.832,0,0,0,.506-1.792c0-.7-.2-.995-.8-.995h-18.12a.946.946,0,0,1-1-1v-12.476a.954.954,0,0,1,1-1.009h39.634a.955.955,0,0,1,1,1.009v12.382a6.242,6.242,0,0,1-.9,2.6l-20.02,33.935a3.3,3.3,0,0,0-.5,2c0,1,.1,1.095.6,1.095h19.726a.971.971,0,0,1,1.1,1v12.879a.951.951,0,0,1-1,1Z" transform="translate(-1013.293 -1616.114)" fill="#814c28"/>
    <path id="Path_1486" data-name="Path 1486" d="M1552.347,2130.379c-.194-.606-.4-.606-.794-.606h-15.435a.9.9,0,0,0-1,.7l-3.082,13.878c-.3.792-.7,1-1.29,1h-16.337c-.5,0-.9-.3-.7-1,2.893-12.377,12.95-51.225,17.037-65.9a1.259,1.259,0,0,1,1.187-1.008h25.6c.695,0,1,.411,1.195,1.008,3.98,14.879,14.637,56.908,16.631,65.9.1.592,0,1-.694,1h-17.93a1.128,1.128,0,0,1-1.29-1Zm-2.183-13.982c.194,0,.4-.1.4-.5-.7-4.1-3.389-18.072-4.683-23.767-.1-.29-.3-.4-1.593-.4-1.2,0-1.493.113-1.6.4-1.49,5.695-4.476,19.669-5.175,23.767,0,.395.1.5.4.5Z" transform="translate(-1178.386 -1616.114)" fill="#814c28"/>
    <path id="Path_1487" data-name="Path 1487" d="M404.5,396.671s-77.366-2.579-95.428-103.438c-11.686-65.31,45.814-90.733,3.032-163.156,0,0,55.417,14.062,49.8,66.9-4,37.662,5.157,52.04,27.509,58.077,21.094,5.7,59.445-21.616.537-64.5,0,0,9.814-9.845,37.174-3.517,0,0-44.086-47.672-45.588-102.657C380.137,33.041,434.84,0,434.84,0S412.4,59.063,440.448,92.816s80.281,74.328,76.415,156c0,0,18.49-63.353-11.894-109.594,0,0,69.426,37.266,58.895,116.721-.18,1.439-.392,2.859-.587,4.263-8.415,57.706-6.66-25.393-22.393-37.986a6.057,6.057,0,0,1-2.152-6.481c-4.516,52.526-31.538,60.124-31.538,60.124,1.074-36.953.559-129.107-80.773-157.031,0,0,44.182,49.921,30.158,111.094,0,0-11.225-18.284-30.158-24.615,0,0,33.222,68.664-25.781,79.977-47.416,9.1-50.426-53.714-54.044-81.31,0,0-90.393,113.391,57.9,192.7" transform="translate(-239.364 0)" fill="#814c28"/>
    <path id="Path_1488" data-name="Path 1488" d="M746.985,1142.261a31.025,31.025,0,1,0,59.247-18.436c-4.991-16.066-22.385-25.493-38.1-20.666-17.1,5.266-26.31,22.293-21.148,39.1m57.559-17.948a29.258,29.258,0,1,1-36.678-19.284,29.552,29.552,0,0,1,36.678,19.284" transform="translate(-580.417 -857.197)" fill="#814c28" fill-rule="evenodd"/>
    <path id="Path_1489" data-name="Path 1489" d="M770.746,1159.421a25.705,25.705,0,1,0,16.925-32.222,25.63,25.63,0,0,0-16.925,32.222m47.493-14.742a24.211,24.211,0,0,1-15.964,30.132,24.014,24.014,0,0,1-14.209-45.875,24.027,24.027,0,0,1,30.172,15.743" transform="translate(-599.107 -875.968)" fill="#814c28" fill-rule="evenodd"/>
    <path id="Path_1490" data-name="Path 1490" d="M818.446,1193.829a14.937,14.937,0,0,0,18.6,9.929,15.1,15.1,0,1,0-8.88-28.857,15,15,0,0,0-9.723,18.927m27.036-8.443a13.567,13.567,0,0,1-8.7,16.681,13.345,13.345,0,0,1-16.6-8.686,13.267,13.267,0,1,1,25.3-8" transform="translate(-636.605 -913.443)" fill="#814c28" fill-rule="evenodd"/>
    <path id="Path_1491" data-name="Path 1491" d="M860.45,1223.926a5.5,5.5,0,0,0,7.129,3.737,5.668,5.668,0,0,0,3.659-7.066,5.745,5.745,0,0,0-7.2-3.732,5.59,5.59,0,0,0-3.587,7.061m8.961-2.832a3.707,3.707,0,0,1-2.355,4.818,3.886,3.886,0,0,1-4.981-2.47,4.166,4.166,0,0,1,2.4-4.905,3.924,3.924,0,0,1,4.94,2.558" transform="translate(-669.653 -946.426)" fill="#814c28" fill-rule="evenodd"/>
    <path id="Path_1492" data-name="Path 1492" d="M512.541,1250.378l-4.837-.054-3.763-.43-6.506-1.34-1.232,1.616,1.994,1.126h9.882Z" transform="translate(-386.297 -971.29)" fill="#814c28" fill-rule="evenodd"/>
    <path id="Path_1493" data-name="Path 1493" d="M947.915,1560.049a13.374,13.374,0,0,1-.587-3.832,45.828,45.828,0,0,0-.027-5.378c-.031-.435.776,1.338,1.1,1.665a32.065,32.065,0,0,1,2.9,4.261c.266.76,1.5,2.963,1.5,2.963Z" transform="translate(-737.477 -1206.394)" fill="#814c28" fill-rule="evenodd"/>
    <path id="Path_1494" data-name="Path 1494" d="M708.461,1533.1l4.783-6.246,2.012-4.967,3.506-12.282,1.16-2.37,5.4-9.871,5.554-10.277,2.274-5.321,2.044-5.491,1.935-7.369-.794,7.7-1.164,4.194-1.128,6.288-3.817,11.341-4.638,12.562-.736,2.126-.532,1.909-1.525,4.066-2.306,5.673.23,2.579-.379,4.519-.162,2.113H708.461" transform="translate(-551.54 -1142.706)" fill="#814c28"/>
    <path id="Path_1495" data-name="Path 1495" d="M541.424,780.371a4.8,4.8,0,0,0,.072-5.431,63.017,63.017,0,0,0-4.368-6.367c-2.869-3.605-5.08-7.315-4.638-12.256a19.261,19.261,0,0,0-.767-7.223c-1.976-6.337-4.286-12.569-6.5-18.834-2.008-5.7-3.876-4.77-7.923-9.285-.668-.746.112-5.265-1.8-7.419-1.8-1.8-4.219-1.9-4.535-2.282-.7-.857-1.665-3.056-2.274-3.952-3.51-5.168-6.24-6.055-11.988-7.926a10.869,10.869,0,0,1-5.013-2.965c-3.18-3.977-7.355-6.523-11.586-9.054-4.6-2.743-9.773-4.494-13.567-8.588-2.509-2.7-5.338-5.09-8.085-7.539-4.07-3.617-8.722-5.186-14.113-3.63-3.317.961-6.624,2.024-9.891,3.16-4.151,1.446-8.1,2.015-12.43.134a24.436,24.436,0,0,0-8.844-1.54c-6.587-.22-13.008,1.671-19.7,1.623-7.223-.052-14.447,1.62-21.689,2.384-7.517.8-13.464,4.822-19.447,8.959a66.939,66.939,0,0,1-7.282,3.974c-2.012,1.047-4.323,1.689-6.078,3.072-4.864,3.838-9.547,7.925-14.231,11.994-6.185,5.356-12.114,11.01-18.481,16.113-11.081,8.883-17.326,20.553-20.141,34.165a41.132,41.132,0,0,1-10.77,20.687,5.194,5.194,0,0,0-1.606,5.017,60.154,60.154,0,0,0,1.953,6.788,12.787,12.787,0,0,1-.279,10.526,20.633,20.633,0,0,0-1.065,3.943c-.8,2.854-2.049,5.677-2.288,8.577-.442,5.492-.271,11.02-.428,16.534a10.85,10.85,0,0,0,3.321,7.926c1.312,1.4,2.666,2.759,4.051,4.089,2.594,2.5,3.808,5.614,4.63,9.093a62.2,62.2,0,0,0,3.673,11.576c3.32,7.305,7.057,14.426,10.684,21.591a20.247,20.247,0,0,0,2.283,3.026c.3.647.442,1.5.934,1.923a66.707,66.707,0,0,0,7.513,6.061c3.244,2.035,5.617,4.343,6.944,8.152a14.757,14.757,0,0,0,5.022,6.989c3.181,2.249,11.113-.1,14.881.941,7.305,1.977,8.446,7.957,14.809,11.856,3.948,2.4,11.248,2.131,15.417,4.076,5.405,2.511,8.582,7.65,14.042,10.061,7.5,3.3,12.556,4.125,20.678,3.479,3.636-.286,9.417-2.416,13.022-3.126,13.012-2.583,15.913,3.42,28.01-2.4,1.183-.565,12.4-6.862,13.631-6.6,6.259,1.394,13.153.5,18.048-3.573,3.037-2.538,4.517-8.645,7.269-11.5,4.327-4.505,9.06-3.017,14.695-6.106,1.868-1.032,4-5.55,5.686-6.844,5.839-4.47,5.265-9.382,7.941-15.516,1.1-2.524,5.843-4.533,6.926-7.953,1.733-5.478,8.492-10.409,11.591-15.208,4.665-7.229,6.461-15.051,6.691-23.718.144-5.546,3.168-11.024,5.135-16.163.681-1.777-.37-3.008-.145-4.939.145-.146,1.8-3.528,1.823-3.7,1.075-6.428.74-10.73-.9-17.163a11.484,11.484,0,0,1,1.48-9.694m-69.967-70.266c2.328-.136,8.329,3.893,10.422,6.948-3.61-2.4-6.921-4.616-10.422-6.948m21.355,18.585c2.08,1.848,3.56,4.377,5.306,6.6q-.244.139-.487.264c-7.309-9.965-16.892-14.819-27.031-21.422.28-1.16-.3-2.459.961-1.615,2.518,1.667,5.559,4.662,7.936,6.5,4.674,3.608,8.921,5.758,13.315,9.676M387.3,679.379c5.956-.875,11.988-1.963,17.971-1.85a169.116,169.116,0,0,1,24.361,2.2,107.318,107.318,0,0,1,37.805,14.356c3.9,2.344,5.288,1.764,1.584,6.694a22.276,22.276,0,0,0-1.67,2.924c-4.25-1.995-8.523-3.922-12.724-5.994a115.346,115.346,0,0,0-29.139-9.44,62.639,62.639,0,0,1-8.717-2.414,21.18,21.18,0,0,0-11.528-.546c-7.35,1.523-14.736,2.9-22.1,4.4-2.084.423-4.142,1.016-6.474,1.6-.447-3.169-.844-6.067-1.286-9.265,4.038-.921,7.932-2.072,11.912-2.658m75.016,25.713a111.416,111.416,0,0,0-38.564-14.261c-3-.529-5.807-2.144-8.811-2.807a19.735,19.735,0,0,0-7.558-.5c-7.16,1.267-14.253,2.95-21.364,4.513-2.929.644-5.83,1.409-8.74,2.119-.1-.278-.22-.545-.324-.823a43.146,43.146,0,0,1,4.4-1.36c5.789-1.109,11.6-2.078,17.38-3.2,2.757-.534,5.46-1.283,8.176-1.916a18,18,0,0,1,9.128.629c5.947,1.668,11.965,3.045,17.967,4.526,11.275,2.791,21.612,7.738,31.5,13.718a4.161,4.161,0,0,1,.785.814c-.1.154-.2.312-.3.47-1.227-.631-2.5-1.205-3.677-1.92m2.914,3.7c-.324,2.142-1.339,1.613-2.58.878-9.295-5.506-18.96-10.192-29.495-12.828-2.639-.66-5.383-.985-7.973-1.793-3.912-1.21-7.7-2.841-11.627-4.015-1.769-.529-4.047-1.085-5.563-.4-8.447,3.75-17.687,3.8-26.418,6.1-1.2.323-2.369.74-3.519,1.108-1.1-1.724-.045-2.045,1.015-2.271,5.329-1.124,10.679-2.2,16-3.354a72.207,72.207,0,0,0,9.439-2.26c4.065-1.447,7.779-1.076,11.813.314a148.631,148.631,0,0,0,15.539,4.159C442.6,696.9,452.5,701.4,461.973,706.912q1.6.936,3.253,1.879m-87.82-7.541c1.087-.914,1.737-1.891,2.554-2.077,4.882-1.118,9.809-1.984,14.7-3.069a72.5,72.5,0,0,0,9.52-2.6c3.686-1.4,7.241-2.169,10.806.009,5.144,3.133,11.1,3.339,16.7,4.768A109.993,109.993,0,0,1,462.2,711.54a4.412,4.412,0,0,1,.586.59c-2.3,2.207-4.512,4.46-6.876,6.539a2.431,2.431,0,0,1-2.247.031,74.873,74.873,0,0,0-25.583-10.682,59.8,59.8,0,0,1-15.187-5.184c-2.843-1.5-5.906-.792-8.816.22a16.072,16.072,0,0,0-2.247.931c-4.2,2.276-8.442,2.382-13,.948-5.292-1.666-9.728.749-13.459,4.253a43.342,43.342,0,0,1-11.447,7.7c-9.886,4.633-17.831,11.9-25.624,19.328-6.186,5.9-11.42,12.567-14.768,20.515-.97,2.311-1.792,4.752-2.658,7.3-.018.052-.027.095-.045.151a51.911,51.911,0,0,0-2.048,11.352c-.347,6.272-.483,13.41-.812,19.4-2.865-.287-6.064-.506-9.146-.932-.384-.046-.875-2.135-1.029-2.706a44.344,44.344,0,0,0-1.367-5.355c-2-4.76-.7-9.054,1.01-13.279.028-.065.036-.122.067-.188a1.359,1.359,0,0,0,.059-.131c.3-.723.6-1.447.9-2.167,0-.006.009-.009.009-.014,1.129-2.978,2.143-6.688,2.793-9.137a6.474,6.474,0,0,1,.126-.647c.059-.206.14-.4.2-.606.09-.371.176-.688.239-.905.018-.066.095-.122.117-.187a60.05,60.05,0,0,1,9.75-18.744,126.179,126.179,0,0,1,28.439-26.931c7.445-5.169,15.715-8.572,24.053-11.831,1.074-.426,2.5.054,3.213.09M497.1,775.443c.036.013.058.025.09.036.09,1.145.2,2.289.28,3.429.049.656.085,1.269.095,1.789,0,.154-.014.3-.014.446,0,.073.014.14.005.2,0,0,.126,8.943.189,13.79,0,.12-.009.195-.009.3a51.517,51.517,0,0,1-4.936,24.754c-4.855,10.454-9.94,20.79-15.07,31.113a30.666,30.666,0,0,1-9.845,11.441,51.985,51.985,0,0,0-8.573,7.595c-4.146,4.677-9.682,6.84-15.092,9.255-3.159,1.417-6.488,2.452-9.705,3.755-1.85.747-2.77.226-2.96-2.257,1.5-.462,3.1-.918,4.665-1.466,9.354-3.288,17.985-7.631,25.615-14.291,7.278-6.36,13.626-13.24,17.822-21.994,3.393-7.052,6.628-14.186,10.084-21.216a58.772,58.772,0,0,0,5.865-26.133c0-1.251-.036-2.5-.036-3.75v-.009c-.036-2.66-.077-6.351-.122-8.434-.135-1.92-.262-3.644-.3-4.146-.1-1.3-2.346-16.839-2.675-17.706-.574-1.5-1.142-3-1.706-4.476-1.109-3.242-1.89-6.646-3.393-9.687-3.362-6.871-9.548-10.877-15.883-14.589-3.677-2.162-7.5-4.078-11.252-6.123-1.016-.559-1.99-1.19-2.987-1.784,0-.233,0-.464-.005-.7.673-.084,1.512-.473,1.986-.213,8.17,4.506,17.014,7.844,24.058,14.268,3.993,3.632,6.42,8.186,8.464,13.051a14.588,14.588,0,0,0,1.046,1.8c.664,2.7,1.322,5.408,2.008,8.109a4.89,4.89,0,0,1,.162.993c.542,2.777,1.548,8.263,2.13,12.85M378.646,902.758a10.188,10.188,0,0,1-2.04-.656c-.794-.471-1.5-.892-2.166-1.29a17.363,17.363,0,0,1-2.062-1.2c-2.7-1.61-4.7-2.882-8.342-5.393-8.419-5.826-16.8-11.779-24.726-18.248-4.8-3.935-8.7-8.97-13.008-13.5-1.281-1.339-2.526-2.692-3.835-3.981-2.274-2.248-4.6-4.461-6.9-6.677-1.566-4.42-3.118-8.844-4.707-13.263a2.89,2.89,0,0,0-.884-1.239c-4.16-3.271-4.508-7.718-4.25-12.544a95.165,95.165,0,0,0-.438-10.052c-.113-1.8-.487-10.517-.726-12.313-.172-1.325.194-1.95,1.909-1.964.46,4.61,1.367,16.1,1.691,20.7.343,4.823,1.16,9.337,3.61,13.73,2.039,3.673,2.811,8.062,4.227,12.115a8.471,8.471,0,0,0,1.277,1.854c.461,1.118.641,2.5,1.426,3.3,7.373,7.613,14.47,15.562,22.393,22.55,7.5,6.609,15.8,12.336,23.963,18.153,3.867,2.759,5.924,4.221,8.839,6.143.289.172,8.447,5.352,15.887,5.6,7.576.24,14.488.135,14.488.135,7.607-1.628,19.184-4.211,25.059-5.559.145.253,1.949,2.153,1.395,2.276-5.18,1.121-13.383,3.452-20.309,4.845a128.922,128.922,0,0,1-13.4,1.036.313.313,0,0,0-.113,0,33.8,33.8,0,0,1-9.539-1.538c-3.673-1.117-6.529-2.14-8.717-3.035,0,.013,0,.013,0,.018m-75.553-82.416a54.618,54.618,0,0,0-1.051-7.211c.136-1.43.031-10.793.212-12.693.722,2.294.866,10.993,1.439,12.829-.19.276.131,1.611.131,1.887.013,3.741.077,7.482.131,11.218.045,3.384-.293,6.922,2.428,9.527a19.291,19.291,0,0,1,4.963,9.182,43.253,43.253,0,0,0,2.279,5.967,33.794,33.794,0,0,0,3.24,4.637c5.067,5.419,10.26,10.73,15.323,16.172,6.285,6.749,13.937,11.779,21.22,17.276,2.992,2.275,6.2,4.243,9.3,6.36.636.439,1.227.918,1.84,1.371-.108.163,6.078,4.252,5.965,4.4-3.294-2.135-12.972-8.075-16.148-10.368-7.535-5.424-15.377-10.458-21.793-17.253-3.934-4.176-7.616-8.6-11.51-12.8-2.111-2.294-4.449-4.37-6.678-6.546-1.413-3.388-2.915-6.735-4.21-10.173a13.1,13.1,0,0,0-4.372-6.2,7.316,7.316,0,0,1-3.046-6.328c.117-3.755.438-7.509.334-11.255m17.791-45.706V774.6c.054-.837.1-1.669.149-2.506a5.1,5.1,0,0,1,.329-1.124c.249-1.674.528-3.452.74-4.229a.315.315,0,0,1,.031-.109c.018-.1.009-.17.037-.279a53.755,53.755,0,0,1,13.486-24.794c7.725-8.249,16.036-15.84,25.935-21.492,4.142-2.366,8.279-4.747,12.313-7.292a47.521,47.521,0,0,0,5.153-4.142,9.121,9.121,0,0,1,9.308-1.929c5.306,1.916,10.156.814,14.935-1.464a11.467,11.467,0,0,1,11.763.586c4.566,2.849,9.935,3.082,14.961,4.463A76.386,76.386,0,0,1,453.3,720.65c.027.253.055.5.077.755-.677.041-1.538.4-1.981.1-9.159-6.039-19.293-9.4-29.977-11.356a26.514,26.514,0,0,1-6.3-2.008,16.687,16.687,0,0,0-14.537.19,10.464,10.464,0,0,1-9.169.283c-6.141-2.827-10.982-.945-15.539,3.585a60.407,60.407,0,0,1-9.647,7.633c-3.172,2.078-7.174,3.013-10.044,5.38-11.583,9.577-23.345,19.108-29.4,33.573-1.033,2.475-1.845,5.074-2.712,7.728a.453.453,0,0,1-.013.077c-.384,1.193-1.3,7.146-1.345,7.874a0,0,0,0,1,0,0c-.465,6.91-.777,14-1.322,21.3-.528-.313-1.661-.194-1.643-.728.284-6.422.772-13.986,1.146-20.4Zm162.3,4.675c.392.592.853,1.284,1.308,1.972-.171.124-.455.231-.505.4-.3,1.115.027,6.546.2,8.31,1.322,13.775-2.63,26.242-8.735,38.333-4.218,8.369-8.807,16.412-15.638,22.922a75.474,75.474,0,0,1-20.484,14.091c-3.339,1.551-6.7,3.04-10.138,4.3-1.737.624-3.691.611-5.509,1a15.9,15.9,0,0,0-3.258,1.1,51.007,51.007,0,0,1-4.611,2.411c-4.72,1.624-9.462,3.121-14.57,3.19a21.881,21.881,0,0,1-15.67-6.075c-1.882-1.765-12.3-8.379-16.036-10.382-11.311-6.048-19.406-15.4-26.7-25.635a20.223,20.223,0,0,1-1.137-2.05c-2.229-5.392-4.467-10.771-6.764-16.126-.139-.349-.8-3.248-1.059-4.4-2.775-12.273-2.654-24.595-.8-36.958a9.229,9.229,0,0,1,.293-1.007c.826-3.832.072-1.7,1.232-5.637,2.387-8.181,6.808-15.15,12.39-21.5,3.154-3.6,6.033-7.44,8.938-11.246,2.821-3.718,6.209-6.335,11.005-7.113a21.193,21.193,0,0,0,10.662-5.051c3.939-3.438,8.071-5.352,13.675-4.472,4.038.635,8.329-.466,12.516-.581,14.258-.434,27.866,1.932,40.17,9.722,1.773,1.108,2.346,2.112,1.146,4.005a22.057,22.057,0,0,0-1.489,3.823c-2.039-1.814-3.5-3.128-4.976-4.413a18.945,18.945,0,0,0-11.226-4.743c-7.778-.573-15.552-1.608-23.318-1.507a58.557,58.557,0,0,0-15.738,2.843c-7.445,2.221-14.741,4.965-21.928,7.91a17.334,17.334,0,0,0-6.268,5.026c-4.227,5.089-8.071,10.495-12.177,15.695-3.917,4.969-5.609,10.828-7.012,16.821a85.19,85.19,0,0,0-1.759,28.82c.059.6.519,3.669.735,4.533,1.16,4.637,2.869,9.192,3.578,13.883,1.237,8.242,6.339,13.906,11.641,19.587,2.22,4.791,5.215,8.813,10.3,11q13.387,5.754,26.675,11.775a30.854,30.854,0,0,0,16.983,2.764c8.184-1.073,15.783-4.058,23.363-7.107a68.288,68.288,0,0,0,33.2-27.721,70.794,70.794,0,0,0,10.874-45.033c-.036-.319-.411-.617-.627-.918a15.284,15.284,0,0,0-1.065-9.5,46.67,46.67,0,0,0-.375-4.71c-.727-4.064-1.485-8.131-2.41-12.152a10.412,10.412,0,0,0-4.553-6.295c-4.047-2.8-7.977-5.766-12-8.6-2.215-1.581-4.516-3.034-7.065-4.743,1.1-1.7,2.233-3.443,3.5-5.4,2.784,1.734,5.45,3.389,8.108,5.057,3.619,2.273,7.134,4.732,10.865,6.8,5.473,3.036,8.329,7.679,9.353,13.718.6,3.49,1.385,6.95,2.143,10.409a5.277,5.277,0,0,0,.808,1.4c-.041,2.945-1.331,7.383-.059,7.467M323.474,792.468c.126-6.738.921-20.617.983-20.594a23.153,23.153,0,0,1,1.353-4.589c0-.007,0-.007,0-.014.126-.489.276-1.045.469-1.757,3.028-10.993,9.561-19.7,17.736-27.3a157.468,157.468,0,0,1,13.148-11.481c3.429-2.56,7.621-4.094,11.3-6.371a78.787,78.787,0,0,0,7.305-5.539,23.411,23.411,0,0,0,2.242-2.133c3.655-3.787,7.765-4.686,12.647-2.44a10.976,10.976,0,0,0,9.227.275c1.083-.472,2.206-.837,3.33-1.217a14.04,14.04,0,0,1,8.87-.35c5.545,1.7,11.185,3.1,16.776,4.657,7.206,2,14.167,4.591,20.439,8.774.533.364,1.042.76,1.579,1.154-1.353,1.669-2.6,3.2-3.993,4.9a8.686,8.686,0,0,1-1.394-.672c-11.316-7.8-24.189-10.108-37.54-10.574-3.135-.113-6.3.516-9.443.613a84.4,84.4,0,0,1-9.453-.122,11.854,11.854,0,0,0-9.236,2.71c-4.3,3.7-8.866,6.688-14.723,7.446a13.423,13.423,0,0,0-8.6,5.039c-5.238,6.381-10.526,12.736-15.517,19.31a48.133,48.133,0,0,0-8.374,17.472c-.031.15-.086.294-.122.441l.009.007c-.1.351-.911,4.112-1.254,5.709a98.4,98.4,0,0,0-.961,24.154c.47,5.419,4.571,21.727,5.527,24.056,1.25,3.1,2.839,6.057,4.3,9.071a67.156,67.156,0,0,0,3.664,6.5,80.761,80.761,0,0,0,30.419,26.029,32.954,32.954,0,0,1,6.493,4.429,62.186,62.186,0,0,0,9.606,6.645c8.911,3.647,18.982,1.656,32.1-2.425a39.166,39.166,0,0,1,2.748,7.32c-4.615,1.456-12.142,3.569-16.78,5.134-3.809,1.28-10.793,2.14-15.481,2.153-.027,0-.054,0-.086,0-.095,0-.181,0-.275,0-.473-.014-.956-.014-1.367-.041a.467.467,0,0,1-.113-.031c-8.767-.837-13.563-9.038-14.326-10.49-5.595-4.316-11.09-8.794-16.906-12.775-8.148-5.586-14.7-12.666-20.642-20.437a71.476,71.476,0,0,1-9.326-16.254c-.262-.633-1.394-3.944-1.719-4.962a91.744,91.744,0,0,1-4.309-21.881,13.319,13.319,0,0,1,.659-3.429,33.9,33.9,0,0,1-.992-6.12M471.89,814.091a68.153,68.153,0,0,1-25.321,35.628c-8.929,6.509-19.054,10.536-29.545,13.634a35.116,35.116,0,0,1-27.378-2.556c-7.219-3.791-14.885-6.695-22.393-9.917-3.479-1.488-6.52-3.392-8.42-6.831a13.89,13.89,0,0,0-1.863-2.143A9.19,9.19,0,0,0,355.9,839.8c-5.649-6.252-10.089-13.123-11.583-21.664-.713-4.12-1.868-8.161-2.874-12.227a11.753,11.753,0,0,0-.952-2c0-3,.027-6,.009-9.008-.086-10.817,1.516-21.345,5.856-31.306a34.863,34.863,0,0,1,4.381-6.6c3.181-4.234,6.642-8.271,9.66-12.621a16.342,16.342,0,0,1,10.788-7.328,30.263,30.263,0,0,0,8.767-3.538,40.53,40.53,0,0,1,13.035-4.447,82.47,82.47,0,0,1,17.055-1.395,167.262,167.262,0,0,1,21.012,2.444c4.575.744,7.494,4.491,10.761,7.439.311.3.122,1.155.207,2.372-1.746-1.644-2.978-2.792-4.187-3.947a16.444,16.444,0,0,0-11.311-4.791c-6.9-.208-13.811-.875-20.71-.78-11.177.156-21.427,3.784-31.345,8.848a42.66,42.66,0,0,0-16.148,13.673,16.445,16.445,0,0,1-4.548,3.822,17.008,17.008,0,0,0-7.422,11.881c-1.359,8.283-2.315,16.645-3.3,24.987-.153,1.3.442,2.7.69,4.046.122,3.868-.32,7.857.474,11.59,1.854,8.694,3.826,17.384,9.814,24.55,2.468,2.945,4.092,6.6,6.1,9.934,1.66,3.981,9.191,7.713,13.563,6.727,7.467,2.885,14.9,5.876,22.424,8.626a32.113,32.113,0,0,0,15.038,1.533,72.228,72.228,0,0,0,27.293-9.223c21.156-12.141,32.076-30.833,33.687-55.1a7.119,7.119,0,0,0-.515-2.129c0-3.121.212-6.279-.08-9.375-.357-3.707-1.151-7.376-1.76-11.051,1.25-5.562-1.773-13.116-6.24-16.405-2.761-2.049-5.2-4.533-7.833-6.772-2.355-1.988-4.76-3.911-7.156-5.847-.681-.543-1.421-1.011-2.107-1.484.316-1.624,1.1-1.764,2.207-.979q4.073,2.836,8.139,5.684c2.951,2.07,5.811,4.289,8.866,6.189a9.491,9.491,0,0,1,4.733,6.1c.966,4.47,1.818,8.962,2.756,13.44a18.56,18.56,0,0,0,.8,2.264q.582,5.533,1.151,11.074c-.023,1.031-.109,2.067-.058,3.08a68.093,68.093,0,0,1-3.15,24.008m-1.539-19.977a8.613,8.613,0,0,0,.465,1.66c-.609,3.7-1.1,7.441-1.859,11.119-3.371,16.167-11.641,29.2-25.015,38.9-7.936,5.754-16.865,9.355-26.259,11.875a37.563,37.563,0,0,1-23.457-1c-5.166-1.963-10.229-4.2-15.449-6-2.639-.91-5.518-1.122-8.288-1.656-2.856-1.5-5.708-3.008-8.564-4.5-2.224-4.117-3.93-8.631-6.763-12.268-6.181-7.9-8.248-17.059-9.543-26.6-.415-3.036-.676-6.107-1.015-9.156,1.073-8.71,2.071-17.427,3.235-26.125.659-4.941,2.653-9.264,6.926-12.13a33.423,33.423,0,0,0,8.473-8.615c3.051-4.266,7.553-6.548,12.115-8.627,5.419-2.463,10.851-4.965,16.478-6.887,7.26-2.489,14.858-2.427,22.443-1.764a97.1,97.1,0,0,0,10.572.572,16.032,16.032,0,0,1,12.358,4.868,22.778,22.778,0,0,1,3.217,3.735,11.95,11.95,0,0,1-1.845-1.385,16.676,16.676,0,0,0-13.026-5.435c-6.24.023-12.485-.333-18.729-.339a58.354,58.354,0,0,0-17.511,2.7,57.167,57.167,0,0,0-15.833,7.684c-3.361,2.348-6.321,5.282-9.488,7.905-2.2,1.814-4.245,3.983-6.745,5.243-5.126,2.578-7.314,6.826-8.09,12.16-.935,6.477-1.878,12.962-2.752,19.453a9.787,9.787,0,0,0,.293,2.524,17.984,17.984,0,0,0-.361,3.225c.14,2.654.645,5.3.636,7.941-.018,9.291,3.1,17.548,8.343,24.975a40.723,40.723,0,0,1,5.573,10.984c1.425,4.478,4.3,7.215,8.87,7.884a99.928,99.928,0,0,1,20.155,5.628,57.146,57.146,0,0,0,11.749,2.963c13.748,1.99,26.088-2.475,37.656-9.291,12.512-7.355,20.512-18.638,25.876-31.892,1.624-4.008,3.064-8.129,2.694-12.6.054-4.316.275-8.623.144-12.929-.167-5.127-.628-10.241-1-15.365a6.6,6.6,0,0,0-.524-1.558c.744-3.66-.009-7.516-2.987-9.224-6.335-3.613-10.377-9.419-15.453-14.238-1.119-1.07-2.292-2.073-3.439-3.108.181-.251.366-.5.556-.751,1.709,1.111,3.5,2.119,5.093,3.365,1.616,1.26,3.018,2.789,4.544,4.173,2.112,1.929,4.043,4.171,6.438,5.654a13.347,13.347,0,0,1,6.647,11.266,23.4,23.4,0,0,0,1.042,4.17,9.621,9.621,0,0,0-.338,2.16q.8,9.326,1.741,18.642m-11.8-5.053a53.326,53.326,0,0,1,2.112,8.812,16.752,16.752,0,0,1-2.833,12.25c-4.336,6.138-8.419,12.544-13.41,18.118-14.28,15.886-35.5,20.587-55.344,12.874q-5.455-2.131-11.032-3.945a11.2,11.2,0,0,1-7.016-6.5,52.182,52.182,0,0,0-5.757-9.382c-5.392-7.079-8.054-15.054-9.1-23.858-.578-4.747-.5-9.122,1.291-13.623,1.236-3.121,1.439-6.636,2.509-9.843a17.318,17.318,0,0,1,3.388-6.5c3.235-3.384,7-6.27,10.5-9.416,12.074-10.847,26.142-14.98,42.119-12.526,4.525.692,8.992,1.538,13.6.88,2.7-.378,4.629,1.2,6.312,3.011a2.41,2.41,0,0,1,.158,1.938c-.406,1.307-1.029,2.558-1.561,3.822-.613.934-1.232,1.871-1.674,2.54-2-.846-3.768-1.751-5.639-2.352-2.874-.928-5.8-1.678-8.731-2.438a41.793,41.793,0,0,0-25.037.972,42.215,42.215,0,0,0-24.261,21.449c-2.712,5.42-5.247,11.131-5.148,17.265.181,10.641,3.2,20.467,9.917,29.013,17.714,22.505,52.334,21.609,68.808-1.823a126.1,126.1,0,0,1,8.446-11.345c4.819-5.455,5.8-9.835,2.752-16.407-1.769-3.825-3.714-7.537-3.515-11.968.127-2.954-1.507-5.07-3.582-7.054-3.4-3.237-6.709-6.6-9.877-10.06-2.473-2.714-2.347-2.818-.564-6.021a2.06,2.06,0,0,0,.127-.622c.79-.849,1.579-1.7,2.581-2.789a14.047,14.047,0,0,1,1.245,1.7c3.33,6.274,7.9,11.029,14.785,13.5,3.493,1.246,4.372,3.567,3.777,7.315a29.044,29.044,0,0,1-.8,3.678,14.925,14.925,0,0,0,.447,9.341m-56.567-29.935a36.008,36.008,0,0,0-29.905,30.356c-2.969,21.718,13.423,42.431,37.472,41.205,13.974-.7,24.319-7.911,30.546-20.578a67.681,67.681,0,0,0,4.358-11.341,13.708,13.708,0,0,0-.049-6.54c-2.292-9.965-6.033-19.183-14.6-25.769.533-.787.957-1.45,1.408-2.095.424-.592.866-1.154,1.476-1.968,1.421,1.667,2.639,3.214,3.97,4.655q3.364,3.657,6.845,7.2a13.158,13.158,0,0,1,3.718,6.6,67.019,67.019,0,0,0,3.713,11.761c2.053,4.825,1.94,9-1.53,13.171a141.3,141.3,0,0,0-8.338,11.417,40.009,40.009,0,0,1-62.355,5.555c-6.434-6.614-9.854-14.607-11.207-23.6-3.565-23.666,19.171-50.74,49.586-43.666a100.05,100.05,0,0,1,10.522,3.347,27.055,27.055,0,0,1,3.849,2.133c-.9,1.83-1.6,3.266-2.342,4.786-8.289-5.761-17.24-8.12-27.135-6.632m38.225,25.163c4.129,13.051,4.074,13.064-1.9,25.5-10.129,21.061-38.438,25.789-54.825,9.164a31.893,31.893,0,0,1-8.333-13.847,34.143,34.143,0,0,1,25.132-43.848,32.659,32.659,0,0,1,26.02,4.832,33.867,33.867,0,0,1,13.906,18.2m11.068-29.765c2.482,3.1,5.031,5.962,8.686,7.684a8.569,8.569,0,0,1,4.841,6.717,22.08,22.08,0,0,0,.781,2.519c-.086,2.893-.365,5.8-.235,8.672.293,5.661.849,11.3,1.2,16.961.135,2.321.04,4.655.058,6.975-.357,1.049-.78,2.072-1.051,3.144a64.973,64.973,0,0,1-16.13,28.851c-6.317,6.677-14.1,11.128-22.529,14.444-10.657,4.2-21.5,5.189-32.648,1.719-7.5-2.348-14.65-5.913-22.65-6.569-5.194-.425-7.991-3.538-9.656-8.382a41.383,41.383,0,0,0-5.1-9.722,46.134,46.134,0,0,1-7.675-18.678c-.93-5.573-.83-11.314-1.227-16.982-.032-.389-.392-.762-.6-1.14,1.033-4.8,2.152-9.6,3.068-14.426.424-2.244.424-4.558.669-6.831.545-5.252,3.754-8.393,8.171-10.773a21.555,21.555,0,0,0,5.351-4.156,59.476,59.476,0,0,1,26.661-16.3,49.817,49.817,0,0,1,15.6-2.347c7.219.179,14.452.459,21.671.8,4.684.224,7.617,3.529,10.671,6.533a1.325,1.325,0,0,1,.149,1.166c-.541,1.267-1.178,2.488-1.945,4.049-3.343-4.354-7.692-3.983-12.236-3.6-2.509.208-5.126-.461-7.657-.9-18.535-3.185-34.344,1.986-47.551,15.379a42.548,42.548,0,0,1-5.983,5.218A14.406,14.406,0,0,0,358,773.979a109.4,109.4,0,0,1-3.2,11.945c-1.371,4.12-.988,8.147-.225,12.248a52.738,52.738,0,0,1,.979,6.12c.456,6.289,3.948,11.178,7.106,16.249,2.73,4.375,5.261,8.871,8.118,13.141,1.1,1.646,2.63,3.51,4.359,4.139,7.964,2.859,15.909,6.1,24.139,7.758,15.354,3.081,29.156-1.3,41.312-11.033,5.319-4.271,9.141-9.78,12.9-15.367,2.058-3.057,4.477-5.88,6.4-9.006,3.1-5,3.226-10.509,1.913-16.084-.587-2.508-1.336-4.981-2.125-7.445-1.119-3.481.4-6.711.889-10.033.744-5.054-.533-7.546-5.112-9.778-2.382-1.167-4.995-2.137-6.935-3.847-2.193-1.918-3.732-4.562-5.545-6.9a2.578,2.578,0,0,1-.212-.391c-2.621-4.318-2.621-4.318,1.006-8.823a100.319,100.319,0,0,1,7.517,7.654m-129.574,44.3c.451,3.452.708,8.767,1.421,12.1,1.033,4.814,2.4,9.564,3.691,14.308a108.281,108.281,0,0,0,4.706,11.21c7.778,14.069,18.693,25.161,32.089,34.054a128.359,128.359,0,0,1,12.494,9.853,23.836,23.836,0,0,1,4.832,4.148c6.15,6.274,13.031,5.93,18.63,5.939,1.855-.335,3.542-.665,4.634-.954,6.173-1.615,12.25-3.587,18.324-5.559,3.145-1.036,3.207.38,3.844,1.714a6.853,6.853,0,0,1-1.556.652q-12.068,3.081-24.153,6.1c-.835.2-4.336,1-6.339,1.407h0c-.541.108-1,.2-1.227.225-.086.009-.145-.009-.221,0-7.444.679-12.4-6.686-13.666-7.781-1.2-1.063-2.414-2.112-3.673-3.108-6.673-5.306-13.3-10.707-20.132-15.814a95.156,95.156,0,0,1-16.911-16.733c-4.6-5.7-8.912-11.549-11.56-18.474-.095-.258-2.46-5.275-3.226-7.667-.271-1.751-.532-3.515-.816-5.271-.876-5.36-2.392-14.019-3.145-19.411-.117-.864.18-.805,1.968-.941m-1.453,16.443c.573,2.923,1.6,5.764,2.427,8.641.713,2.519,1.395,5.057,2.157,7.568.09.285,1.092,2.561,1.43,3.388,2.166,5.4,5.658,9.943,9.019,14.62,8.208,11.449,19.357,19.478,30.5,27.635,4.2,3.071,7.932,6.8,11.88,10.246a2.7,2.7,0,0,0,.5.426,5.751,5.751,0,0,1,2.847,2.135.021.021,0,0,0,.018.009c.47.6.939,1.47,1.665,2.28s6.849,3.633,8.947,3.881c2.089.23,7.571-2.018,11.108-2.308,5.753-1.588,11.754-3.252,15.954-4.4,2.4-.656,4.81-1.294,7.251-1.8.438-.1,1.525.429,1.566.764.294,2.818,1.354,5.6,1.326,8.436-.009.547-2.107,1.475-2.874,1.656-6.52,1.492-13.067,2.858-19.61,4.266-.578.126-1.159.217-1.741.294-.875.131-1.832.3-2.793.452h0c-3.357.986-4.065.335-11.316.064s-12.489-3.9-13.784-4.569a15.742,15.742,0,0,1-2.739-1.737c-10.531-7.7-21.111-15.335-31.295-23.455-4.625-3.692-8.356-8.487-12.516-12.761-1.994-2.049-4.066-4.035-6.028-6.107-1.895-2.031-3.686-4.153-5.536-6.211a20.122,20.122,0,0,1-1.2-2.828c-1.746-4.912-2.581-10.119-5.428-14.679-1.146-1.837-1.426-4.329-1.692-6.564-1.02-8.695-1.2-20.759-1.471-24.247-.059-.647.234-.729,1.132-.815,2.978-.276,4.133.168,8.271-.244.695,4.456,1.164,11.644,2.03,15.955m110.033,63.761c-1.146-2.026-2.057-4.175-3.19-6.586,17.75-6.6,33.614-15.44,43.572-31.924,9.57-15.837,17.665-32.23,14.921-52.223.055.016.1.029.149.05-.023-.78-.054-1.721-.086-2.635-.013-.459-.694-9.224-1.309-14.186-.171-.2-.36-.408-.523-.6a9.44,9.44,0,0,0,.072-2.411c-.8-3.836-1.706-7.645-2.563-11.463-1.385-6.274-5.586-10.081-10.928-13.164-5.852-3.379-11.47-7.158-17.651-11.057,1.444-1.849,2.766-3.536,4.169-5.334,1.651.842,4.309,2.054,6.818,3.518,4.756,2.782,9.534,5.566,14.135,8.606,5.8,3.838,8.889,9.687,11.077,16.1a26.632,26.632,0,0,0,1.245,2.68c.311,1.889.672,3.773.916,5.662a.557.557,0,0,1,.031.119c.009.091.022.227.045.4a.127.127,0,0,0,.009.054c.374,2.719,2.721,14.2,2.3,15.767v0c.076.934.009,1.328-.334,1.586-.027.144-.059.3-.081.449.158,2.635.4,6.419.569,9.886a5.823,5.823,0,0,1,.085.629c.068,1.176.081,2.347.081,3.515a16.908,16.908,0,0,1-.126,3.967.038.038,0,0,0-.009.018,58.391,58.391,0,0,1-6.258,22.487c-4.638,9.142-9,18.461-14.073,27.345-2.211,3.873-5.689,7.125-8.983,10.224-4.868,4.587-9.678,9.337-15.958,12.087-5.392,2.352-10.752,4.777-16.171,7.061a2.1,2.1,0,0,1-1.953-.629M372.69,699.292a119.035,119.035,0,0,0-38.654,24.384c-11.068,10.576-20.615,22.087-24.676,37.271-.988,3.777-2.761,8.656-2.72,8.649-4.467,7.6-2.811,16.4.163,24.029-.235.129-.465.267-.7.407-.618-.264-1.624-.385-1.8-.84a75.213,75.213,0,0,1-3.556-10.571c-.857-4.094,1.187-7.559,2.92-11.044.691-1.427,4.4-12.48,4.656-13.336a1.054,1.054,0,0,1,.1-.206,64.994,64.994,0,0,1,9.34-18.721,118.169,118.169,0,0,1,28.8-28.472c6.132-4.235,13.175-7.156,19.8-10.637a15.808,15.808,0,0,1,3.46-1.445,4.219,4.219,0,0,1,2.866.531M307.61,753.849c-.623,1.418-3.317,9.78-4.232,12.3s-4.5,12.2-4.711,13.852c-.095,4.313,2.156,9.282,3.42,13.459-3.447-4.618-4.788-10.875-3.615-15.326a20.261,20.261,0,0,1,1.44-4.347c1.529-3.463,4.268-11.359,5.5-14.955.691-2.008,1.341-4.047,2.13-6.026,4.358-10.956,11.4-20.094,19.424-28.553,9.263-9.771,19.659-18,31.877-23.771,3.122-1.484,6.307-2.848,9.479-4.227a3.731,3.731,0,0,1,2.071-.229c-28.069,11.933-50,30.041-62.779,57.821m-14.579,16.8c.861-.034,5.148-14.9,4.178-15.462,2.076-4.63,3.971-9.256,6.209-13.714,6.872-13.708,16.55-19.164,28.128-29.157a108.263,108.263,0,0,1,25.47-16.631c1.534-.708,2.8-7.681,4.232-8.552a2.921,2.921,0,0,1,4.151.606c1.471,1.773,2.689,3.757,4.3,6.046-15.567,6.078-29.026,14.155-40.423,25.588-10.946,10.977-20.426,22.838-25.2,37.915-.989,3.182-4.413,13.08-4.345,13.078-4.977,7.5-4.152,15.557.307,22.942-3.312.561-6.29.278-9.344.8a103.11,103.11,0,0,1,2.346-23.457m123.931,141.2c-2.857.249-10.645,0-15.17-.086h-.05c-.893-.018-1.669-.04-2.234-.04a2.442,2.442,0,0,1-.618-.095c-8.216-.607-27.794-3.185-35.852-7.5A.052.052,0,0,1,363,904.1c-8.9-3.252-15.1-7.568-24.779-14.688A113.8,113.8,0,0,1,312.3,863.018a12.534,12.534,0,0,0-1.823-1.773c-.835-1.6-1.557-3.284-2.513-4.8-7.81-12.435-13.617-31.693-16.568-46.023-.434-2.1-.767-6.849,1.344-7.468a10,10,0,0,0,2.473-1.674c.992-.1,3.569-.23,4.832-.38.221.72.749,10.857,1.02,11.734-.086.172-.257.353-.257.534.027,4.972.1,9.957.1,14.942-.014,3.709-.316,7.6,2.825,10.268a16.163,16.163,0,0,1,5.459,8.545,13.283,13.283,0,0,0,1.462,3.451c.975,1.6,3.777,6.27,4.314,6.862,5.257,5.777,10.491,11.58,15.892,17.217,7.665,7.984,16.789,14.159,25.975,20.162,5.211,3.4,9.452,5.84,14.33,8.649.5.285,1.065.616,1.579.91,7.7,2.46,17.583,4.922,27.342,5.347,3.448-.173,8.46-.245,9.823-.521,5.048-1.026,14.822-2.456,19.8-3.732,2.491-.638,3.153.412,3.578,2.371.113.493.262.986.551,2.09-4.228.529-12.891,1.773-16.879,2.117m19.617-19.479c-1.123-1.782-1.917-3.786-2.878-5.691-.677-1.352.279-1.655,1.232-2,3.2-1.1,6.452-2.085,9.575-3.348,6.862-2.755,13.473-5.9,18.192-12a18.254,18.254,0,0,1,4.846-4.162c6.519-3.98,10.531-10.015,13.761-16.652,4.71-9.694,9.43-19.393,13.793-29.245a50.4,50.4,0,0,0,4.363-24.319c-.225-1.925-.09-7.844.027-11.207.122-8.373-3.352-23.778-3.958-25.866-.356-1.217-.708-2.434-1.082-3.637a9.52,9.52,0,0,0-1.083-1.787c-1.173-2.87-2.057-5.933-3.592-8.609-4.44-7.715-11.9-11.85-19.446-15.794-3.443-1.8-6.891-3.567-10.6-5.48,2.946-2.623,5.613-4.994,8.5-7.575,2.631,1.515,5.586,3,8.325,4.829,4.029,2.707,7.914,5.655,11.862,8.487,4.25,3.035,7.038,7.258,9.534,11.725.27.48.88.776,1.322,1.158a15.994,15.994,0,0,0,.73,3.314c2.067,4.369,4.214,8.706,5.207,13.422.009.032.028.045.037.079,1.452,4.958,2.8,17.255,2.8,17.255v.009a20.922,20.922,0,0,1,.072,7.943c-.013.068-.009.122-.018.192-.875,3.54-.37,10.2-.37,10.2-.1.461.866,10.583-.428,15.559-2.36,9.052-6.069,17.723-9.371,26.485-4.467,11.829-9.457,23.433-16.6,33.95a17.924,17.924,0,0,1-5.229,4.967,44.125,44.125,0,0,0-11.447,9.6,19.523,19.523,0,0,1-9.326,6.456c-4.82,1.592-9.665,3.066-14.533,4.505-2.36.7-3.267-1.294-4.215-2.769m65.207-148.536c.234-.086.447-.173.681-.262q2.4,6.09,4.8,12.191c-.14.056-.294.115-.438.174-1.687-4.031-3.357-8.073-5.045-12.1m-62.22,153.494c5.473-1.737,12.092-3.8,17.2-5.4,3.956-1.234,6.768-3.984,9.614-6.839,2.635-2.628,5.274-5.437,8.424-7.319,5.708-3.433,9.336-8.428,12.372-14.082a207.859,207.859,0,0,0,15.251-35.786,48.13,48.13,0,0,1,2.336-5.963.059.059,0,0,1,.009-.04c.916-3.244,5.987-19.764,4.985-27.4-.095-.846-.392-4.123-.383-5.032v-.047c0-.014,0-.018.009-.021,1.128-14.426-1.859-27.307-1.936-30.992.636,3.292,3.605,24.078,2.96,29.239v.031c-.248,1.545.84,8.839,1.25,10.038.027.063,0,.09.018.135a7.849,7.849,0,0,1,.343,5.229v.054c-.316,2.474-6.1,18.723-6.683,20.519-.017.045-.036.072-.05.113-1.363,4.275-2.725,8.545-4.156,12.8-4.385,12.992-9.94,25.45-17.674,36.809a34.3,34.3,0,0,1-5.59,5.9c-3.018,2.7-6.325,5.049-9.312,7.781-5.5,5.017-12.155,7.668-19.113,9.767a68.382,68.382,0,0,0-6.966,2.171c-1.656.8-1.72-.181-2.915-1.655m2.64,4.324c-.04-.181-.095-.348-.135-.529.636-.213,1.267-.457,1.917-.606,10.337-2.234,22.064-8.079,29.671-15.521,2.992-2.922,6.944-5.044,9.34-8.35a147.723,147.723,0,0,0,10.987-18.117,140.508,140.508,0,0,0,11.379-30.39c.772-2.95,5.726-18.325,7.95-24.817.465-1.33-.609-5.641-1.047-7.659a10.748,10.748,0,0,1-.176-1.74.311.311,0,0,0-.023.061c0-.086,0-.181.013-.271-.067-2.287.185-5.155.185-5.155.429-7.706-3.127-28.524-3.041-30.887.776,2.423,4.39,26.373,3.912,31.042v.009a17.215,17.215,0,0,0,.289,4.809c.33,2.187.474,9.4.6,9.412-.27,1.257-4.94,17.773-5.328,18.985-1.651,5.347-3.276,10.7-5.071,16.005-4.643,13.684-10.233,26.938-19,38.555-4.386,5.831-10.288,10.1-16.189,14.25-6.642,4.668-16.6,9.246-24.644,10.766a13.591,13.591,0,0,1-1.584.149m81.9-95.729a116.649,116.649,0,0,1-16.235,49.448,113.152,113.152,0,0,1-37.815,38.7c-6.113,3.778-16.248,8.21-22.681,11.468-1.877.954-2.793-.313-3.434-1.208,5.8-2.505,15.314-6.075,20.765-9.147a72.807,72.807,0,0,0,30.817-32.85c5.057-10.7,9.538-21.569,12.245-33.14.668-2.85,2.652-5.46,2.978-8.3a45.137,45.137,0,0,1,3.6-13.363c.014-.077.027-.126.041-.208a41.026,41.026,0,0,0,.077-17.308c-.036-.027-.068-.061-.1-.091-.393-.287-.452-1.352-.3-2.117v-.007l.013,0a2.085,2.085,0,0,1,.077-.362c1.8-4.818,1.1-9.588-.217-14.428a.023.023,0,0,0,.014,0c-.623-2.38-1.656-6.053-2.143-7.921a.289.289,0,0,1-.073-.009,44.492,44.492,0,0,1-.821-5.517c-.194-6.779-2.685-12.777-5.956-18.551-.691-1.217-1.268-2.5-1.99-3.692a5.005,5.005,0,0,0-1.2-1.011c-1.476-2.8-2.622-5.888-4.53-8.348s-4.58-4.313-6.958-6.392q-3.065-2.7-6.213-5.309c-3.447-2.834-6.93-5.627-10.558-8.557,1.57-1.717,3.38-3.7,5.532-6.043,3.984,3.623,8.279,7.023,11.93,11,4.629,5.021,8.731,10.533,13.075,15.821a7.653,7.653,0,0,0,1.277,1.051c1.128,2.12,2.283,4.223,3.357,6.367,2.464,4.86,5.09,9.655,7.21,14.663,1.138,2.664,1.421,5.686,1.986,8.576.217,1.077,4.467,13.092,4.535,13.476,1.258,6.2,1.737,32.772,1.688,33.315" transform="translate(-211.473 -518.899)" fill="#814c28" fill-rule="evenodd"/>
  </g>
</svg>
