<svg id="Phone_icon" xmlns="http://www.w3.org/2000/svg" width="35.652" height="35.652" viewBox="0 0 35.652 35.652">
  <path id="Phone_icon-2" data-name="Phone_icon" d="M81.826,99.652A17.826,17.826,0,1,0,64,81.826,17.825,17.825,0,0,0,81.826,99.652Zm5.014-26.69.195.056a4.746,4.746,0,0,1,3.607,5.445A15.836,15.836,0,0,1,78.463,90.641a4.746,4.746,0,0,1-5.445-3.607l-.056-.195a1.409,1.409,0,0,1,.822-1.671l3.391-1.414a1.411,1.411,0,0,1,1.636.411l1.344,1.643A11.9,11.9,0,0,0,85.7,80.071l-1.539-1.253a1.421,1.421,0,0,1-.411-1.636l1.414-3.391a1.416,1.416,0,0,1,1.671-.822Z" transform="translate(-64 -64)" fill="#814c28"/>
</svg>
