<svg id="Sluzba_4_icon" xmlns="http://www.w3.org/2000/svg" width="87.668" height="73.31" viewBox="0 0 87.668 73.31">
  <path id="Sluzba_4_icon-2" data-name="Sluzba_4_icon" d="M98.234,93.323,78.151,73.24a2.308,2.308,0,0,0-3.249,0L63.961,84.18a2.308,2.308,0,0,0,0,3.249l20.083,20.083a5.756,5.756,0,0,1,1.682,4.068v11.026a27.609,27.609,0,0,0,27.6-27.6H102.3A5.756,5.756,0,0,1,98.234,93.323ZM81.4,69.977l20.1,20.1a1.14,1.14,0,0,0,.819.331h12.176a3.442,3.442,0,0,1,3.45,3.45v1.15a32.2,32.2,0,0,1-32.2,32.2h-1.15a3.442,3.442,0,0,1-3.45-3.45V111.581a1.164,1.164,0,0,0-.331-.819l-4.931-4.931L42.527,139.183a7.177,7.177,0,0,1-10.149-10.149L65.73,95.681l-4.988-4.988a6.915,6.915,0,0,1,0-9.761l10.94-10.94a6.915,6.915,0,0,1,9.761,0ZM68.95,98.93,35.6,132.282a2.582,2.582,0,1,0,3.651,3.652L72.6,102.582ZM95.4,69.229l6.9,6.9a2.3,2.3,0,1,1-3.249,3.249l-6.9-6.9A2.3,2.3,0,0,1,95.4,69.229Z" transform="translate(-30.275 -67.975)" fill="currentColor"/>
</svg>
