<svg id="Sluzba_1_icon" xmlns="http://www.w3.org/2000/svg" width="63.174" height="84.232" viewBox="0 0 63.174 84.232">
  <path id="Sluzba_1_icon-2" data-name="Sluzba_1_icon" d="M136.867,94.616A30.272,30.272,0,0,0,128,116.02v1.892a30.317,30.317,0,0,0,30.32,30.32H160.8a30.37,30.37,0,0,0,30.37-30.37,39.736,39.736,0,0,0-12.322-28.757l-12.865-12.24a7.914,7.914,0,0,1-2.451-5.725V67.5a3.507,3.507,0,0,0-3.5-3.5,3.57,3.57,0,0,0-2.813,1.4l-3.208,4.277a21.158,21.158,0,0,0-4.146,10.891l-.148,1.777a21.28,21.28,0,0,0,.263,5.511,21.058,21.058,0,0,0,2.7,7.124c.1.181.214.345.329.526.263.411.559.823.855,1.234l5.265,7.025a8.872,8.872,0,0,1,1.777,5.33v2.3a6.581,6.581,0,1,1-13.161,0v-16.4A4.653,4.653,0,0,0,139.8,91.7Zm21.486-21.963a13.1,13.1,0,0,0,4,8.012l12.865,12.256a34.434,34.434,0,0,1,10.694,24.941A25.1,25.1,0,0,1,160.8,142.968H158.32a25.059,25.059,0,0,1-25.056-25.056V116.02a25.017,25.017,0,0,1,7.321-17.686l1.892-1.875v14.922a11.845,11.845,0,0,0,23.69,0v-2.3a14.118,14.118,0,0,0-2.83-8.489l-5.265-7.025a15.841,15.841,0,0,1-3.109-10.792l.148-1.777a15.66,15.66,0,0,1,3.109-8.16Zm3.076-4.1Z" transform="translate(-128 -64)" fill="currentColor"/>
</svg>
