<svg id="Sluzba_2_icon" xmlns="http://www.w3.org/2000/svg" width="93.739" height="70.304" viewBox="0 0 93.739 70.304">
  <path id="Sluzba_2_icon-2" data-name="Sluzba_2_icon" d="M60.93,100.687H18.748a4.682,4.682,0,0,0-4.687,4.687v2.343H9.374v-2.343A9.383,9.383,0,0,1,18.748,96H60.93a9.383,9.383,0,0,1,9.374,9.374v4.687h8.8a9.377,9.377,0,0,1,6.635,2.739L91,118.058a9.377,9.377,0,0,1,2.739,6.635v22.864a9.383,9.383,0,0,1-9.374,9.374h-.483a12.9,12.9,0,0,1-24.812,0H44.043a12.9,12.9,0,0,1-24.812,0h-.483a9.383,9.383,0,0,1-9.374-9.374V133.5H2.343a2.343,2.343,0,0,1,0-4.687H21.091a2.343,2.343,0,0,1,0,4.687h-7.03v14.061a4.682,4.682,0,0,0,4.687,4.687h.059a12.883,12.883,0,0,1,25.661,0H58.631A12.9,12.9,0,0,1,65.6,141.932l.015-36.558A4.682,4.682,0,0,0,60.93,100.687Zm9.374,39.9c.381-.029.776-.059,1.172-.059a12.875,12.875,0,0,1,12.831,11.717h.059a4.682,4.682,0,0,0,4.687-4.687V133.5H70.3Zm18.748-15.892a4.679,4.679,0,0,0-1.377-3.31l-5.258-5.258a4.679,4.679,0,0,0-3.31-1.377H70.3v14.061H89.052ZM9.374,119.435H2.343a2.343,2.343,0,1,1,0-4.687H30.465a2.343,2.343,0,1,1,0,4.687Zm30.465,33.98a8.2,8.2,0,1,0-8.2,8.2A8.207,8.207,0,0,0,39.839,153.415Zm39.839,0a8.2,8.2,0,1,0-8.2,8.2A8.207,8.207,0,0,0,79.678,153.415Z" transform="translate(0 -96)" fill="currentColor"/>
</svg>
