<svg id="Sluzba_5_icon" xmlns="http://www.w3.org/2000/svg" width="70.492" height="74.912" viewBox="0 0 70.492 74.912">
  <path id="Sluzba_5_icon-2" data-name="Sluzba_5_icon" d="M129.123,65.718a3.291,3.291,0,0,0,0-4.667l-12.116-12.13a3.3,3.3,0,0,0-4.667,4.667l6.471,6.471H90.435A26.462,26.462,0,0,0,64,86.507a3.3,3.3,0,0,0,6.609,0A19.831,19.831,0,0,1,90.435,66.681h28.376l-6.471,6.471a3.3,3.3,0,0,0,4.667,4.667L129.123,65.7ZM69.37,105.094a3.324,3.324,0,0,0,0,4.681l12.116,12.116a3.3,3.3,0,1,0,4.667-4.667l-6.471-6.471h28.376a26.441,26.441,0,0,0,26.435-26.435,3.3,3.3,0,1,0-6.609,0,19.831,19.831,0,0,1-19.826,19.826H79.682l6.471-6.471a3.3,3.3,0,0,0-4.667-4.667Z" transform="translate(-64 -47.95)" fill="currentColor"/>
</svg>
